SplineFontDB: 3.2
FontName: HwanaKwana
FullName: HwanaKwana
FamilyName: HwanaKwana
Weight: Regular
Copyright: Copyright (c) fANhAN iNSiDE 2021, 
UComments: "2021-7-20: Created with FontForge (http://fontforge.org)"
Version: 001.000
StrokeWidth: 300
ItalicAngle: 0
UnderlinePosition: -819
UnderlineWidth: 409
Ascent: 3277
Descent: 819
InvalidEm: 0
LayerCount: 2
Layer: 0 0 "Back" 1
Layer: 1 0 "Fore" 0
XUID: [1021 991 -1287261736 25104]
FSType: 0
OS2Version: 0
OS2_WeightWidthSlopeOnly: 0
OS2_UseTypoMetrics: 1
CreationTime: 1626745112
ModificationTime: 1626751287
PfmFamily: 17
TTFWeight: 400
TTFWidth: 5
LineGap: 1511
VLineGap: 0
OS2TypoAscent: 0
OS2TypoAOffset: 1
OS2TypoDescent: 0
OS2TypoDOffset: 1
OS2TypoLinegap: 1511
OS2WinAscent: 0
OS2WinAOffset: 1
OS2WinDescent: 0
OS2WinDOffset: 1
HheadAscent: 0
HheadAOffset: 1
HheadDescent: 0
HheadDOffset: 1
OS2Vendor: 'PfEd'
MarkAttachClasses: 1
DEI: 91125
LangName: 1033
Encoding: UnicodeFull
UnicodeInterp: none
NameList: AGL For New Fonts
DisplaySize: -48
AntiAlias: 1
FitToEm: 0
WinInfo: 58558 38 14
BeginPrivate: 0
EndPrivate
TeXData: 1 0 0 346030 173015 115343 0 1048576 115343 783286 444596 497025 792723 393216 433062 380633 303038 157286 324010 404750 52429 2506097 1059062 262144
BeginChars: 1114112 36

StartChar: uniE501
Encoding: 58625 58625 0
Width: 1600
Flags: HW
LayerCount: 2
Fore
SplineSet
419.0078125 1928.8203125 m 0
 421.017578125 1928.94140625 423.05859375 1928.94140625 425.09765625 1928.94140625 c 0
 441.12890625 1928.94140625 456.28515625 1925.16113281 469.720703125 1918.44335938 c 0
 502.540039062 1902.03417969 524.942382812 1868.0625 524.942382812 1828.90332031 c 0
 524.942382812 1812.87109375 521.161132812 1797.71484375 514.443359375 1784.27929688 c 0
 370.40625 1496.20507812 305.862304688 1211.16894531 344.7734375 1024.39453125 c 0
 364.229492188 931.006835938 404.3515625 863.120117188 473.26953125 812.998046875 c 0
 542.1875 762.875976562 646.065429688 729 800 729 c 0
 953.934570312 729 1057.8125 762.875976562 1126.73046875 812.998046875 c 0
 1195.6484375 863.120117188 1235.77050781 931.006835938 1255.2265625 1024.39453125 c 0
 1294.13769531 1211.16894531 1229.59375 1496.20507812 1085.55664062 1784.27929688 c 0
 1078.83886719 1797.71484375 1074.90234375 1812.91015625 1074.90234375 1828.94140625 c 0
 1074.90234375 1868.1015625 1097.45996094 1902.03417969 1130.27929688 1918.44335938 c 0
 1143.71484375 1925.16113281 1158.91015625 1929.09765625 1174.94140625 1929.09765625 c 0
 1214.1015625 1929.09765625 1248.03417969 1906.54003906 1264.44335938 1873.72070312 c 0
 1420.40625 1561.79492188 1505.86230469 1246.83007812 1451.0234375 983.60546875 c 0
 1423.60449219 851.993164062 1355.9140625 732.379882812 1244.36328125 651.251953125 c 0
 1132.8125 570.124023438 983.564453125 529 800 529 c 0
 616.435546875 529 467.1875 570.124023438 355.63671875 651.251953125 c 0
 244.0859375 732.379882812 176.395507812 851.993164062 148.9765625 983.60546875 c 0
 94.1376953125 1246.83007812 179.59375 1561.79492188 335.556640625 1873.72070312 c 0
 351.111328125 1904.83007812 382.434570312 1926.625 419.0078125 1928.8203125 c 0
EndSplineSet
EndChar

StartChar: uniE502
Encoding: 58626 58626 1
Width: 1600
Flags: HW
LayerCount: 2
Fore
SplineSet
734.15234375 1896.6015625 m 0
 955.43359375 1894.10058594 1200.98046875 1815.2890625 1444.671875 1693.44335938 c 0
 1477.49121094 1677.03417969 1499.89355469 1643.0625 1499.89355469 1603.90332031 c 0
 1499.89355469 1587.87109375 1496.11230469 1572.71484375 1489.39453125 1559.27929688 c 0
 1472.98535156 1526.45996094 1439.01367188 1504.05761719 1399.85449219 1504.05761719 c 0
 1383.82226562 1504.05761719 1368.66601562 1507.83886719 1355.23046875 1514.55664062 c 0
 1067.15625 1658.59375 782.120117188 1723.13769531 595.345703125 1684.2265625 c 0
 501.958007812 1664.77050781 434.071289062 1624.6484375 383.94921875 1555.73046875 c 0
 333.827148438 1486.8125 299.951171875 1382.93457031 299.951171875 1229 c 0
 299.951171875 1075.06542969 333.827148438 971.1875 383.94921875 902.26953125 c 0
 434.071289062 833.3515625 501.958007812 793.229492188 595.345703125 773.7734375 c 0
 782.120117188 734.862304688 1067.15625 799.40625 1355.23046875 943.443359375 c 0
 1368.66601562 950.161132812 1383.86132812 954.09765625 1399.89257812 954.09765625 c 0
 1439.05273438 954.09765625 1472.98535156 931.540039062 1489.39453125 898.720703125 c 0
 1496.11230469 885.28515625 1500.04882812 870.08984375 1500.04882812 854.05859375 c 0
 1500.04882812 814.8984375 1477.49121094 780.965820312 1444.671875 764.556640625 c 0
 1132.74609375 608.59375 817.78125 523.137695312 554.556640625 577.9765625 c 0
 422.944335938 605.395507812 303.331054688 673.0859375 222.203125 784.63671875 c 0
 141.075195312 896.1875 99.951171875 1045.43554688 99.951171875 1229 c 0
 99.951171875 1412.56445312 141.075195312 1561.8125 222.203125 1673.36328125 c 0
 303.331054688 1784.9140625 422.944335938 1852.60449219 554.556640625 1880.0234375 c 0
 612.13671875 1892.01953125 672.193359375 1897.30175781 734.15234375 1896.6015625 c 0
EndSplineSet
EndChar

StartChar: uniE503
Encoding: 58627 58627 2
Width: 1600
Flags: HW
LayerCount: 2
Fore
SplineSet
800 1929 m 0
 983.564453125 1929 1132.8125 1887.87597656 1244.36328125 1806.74804688 c 0
 1355.9140625 1725.62011719 1423.60449219 1606.00683594 1451.0234375 1474.39453125 c 0
 1505.86230469 1211.16992188 1420.40625 896.205078125 1264.44335938 584.279296875 c 0
 1248.03417969 551.459960938 1214.0625 529.057617188 1174.90332031 529.057617188 c 0
 1158.87109375 529.057617188 1143.71484375 532.838867188 1130.27929688 539.556640625 c 0
 1097.45996094 555.965820312 1075.05761719 589.9375 1075.05761719 629.096679688 c 0
 1075.05761719 645.12890625 1078.83886719 660.28515625 1085.55664062 673.720703125 c 0
 1229.59375 961.794921875 1294.13769531 1246.83105469 1255.2265625 1433.60546875 c 0
 1235.77050781 1526.99316406 1195.6484375 1594.87988281 1126.73046875 1645.00195312 c 0
 1057.8125 1695.12402344 953.934570312 1729 800 1729 c 0
 646.065429688 1729 542.1875 1695.12402344 473.26953125 1645.00195312 c 0
 404.3515625 1594.87988281 364.229492188 1526.99316406 344.7734375 1433.60546875 c 0
 305.862304688 1246.83105469 370.40625 961.794921875 514.443359375 673.720703125 c 0
 521.161132812 660.28515625 525.09765625 645.08984375 525.09765625 629.05859375 c 0
 525.09765625 589.8984375 502.540039062 555.965820312 469.720703125 539.556640625 c 0
 456.28515625 532.838867188 441.08984375 528.90234375 425.05859375 528.90234375 c 0
 385.8984375 528.90234375 351.965820312 551.459960938 335.556640625 584.279296875 c 0
 179.59375 896.205078125 94.1376953125 1211.16992188 148.9765625 1474.39453125 c 0
 176.395507812 1606.00683594 244.0859375 1725.62011719 355.63671875 1806.74804688 c 0
 467.1875 1887.87597656 616.435546875 1929 800 1929 c 0
EndSplineSet
EndChar

StartChar: uniE504
Encoding: 58628 58628 3
Width: 1600
Flags: HW
LayerCount: 2
Fore
SplineSet
865.84765625 1896.6015625 m 0
 927.806640625 1897.30175781 987.86328125 1892.01953125 1045.44335938 1880.0234375 c 0
 1177.05566406 1852.60449219 1296.66894531 1784.9140625 1377.796875 1673.36328125 c 0
 1458.92480469 1561.8125 1500.04882812 1412.56445312 1500.04882812 1229 c 0
 1500.04882812 1045.43554688 1458.92480469 896.1875 1377.796875 784.63671875 c 0
 1296.66894531 673.0859375 1177.05566406 605.395507812 1045.44335938 577.9765625 c 0
 782.21875 523.137695312 467.25390625 608.59375 155.328125 764.556640625 c 0
 122.508789062 780.965820312 100.106445312 814.9375 100.106445312 854.096679688 c 0
 100.106445312 870.12890625 103.887695312 885.28515625 110.60546875 898.720703125 c 0
 127.014648438 931.540039062 160.986328125 953.942382812 200.145507812 953.942382812 c 0
 216.177734375 953.942382812 231.333984375 950.161132812 244.76953125 943.443359375 c 0
 532.84375 799.40625 817.879882812 734.862304688 1004.65429688 773.7734375 c 0
 1098.04199219 793.229492188 1165.92871094 833.3515625 1216.05078125 902.26953125 c 0
 1266.17285156 971.1875 1300.04882812 1075.06542969 1300.04882812 1229 c 0
 1300.04882812 1382.93457031 1266.17285156 1486.8125 1216.05078125 1555.73046875 c 0
 1165.92871094 1624.6484375 1098.04199219 1664.77050781 1004.65429688 1684.2265625 c 0
 817.879882812 1723.13769531 532.84375 1658.59375 244.76953125 1514.55664062 c 0
 231.333984375 1507.83886719 216.138671875 1503.90234375 200.107421875 1503.90234375 c 0
 160.947265625 1503.90234375 127.014648438 1526.45996094 110.60546875 1559.27929688 c 0
 103.887695312 1572.71484375 99.951171875 1587.91015625 99.951171875 1603.94140625 c 0
 99.951171875 1643.1015625 122.508789062 1677.03417969 155.328125 1693.44335938 c 0
 399.01953125 1815.2890625 644.56640625 1894.10058594 865.84765625 1896.6015625 c 0
EndSplineSet
EndChar

StartChar: uniE505
Encoding: 58629 58629 4
Width: 1600
Flags: HW
LayerCount: 2
Fore
SplineSet
804.1015625 3128.91601562 m 0
 813.001953125 3128.54980469 821.66796875 3126.99609375 829.822265625 3124.44726562 c 0
 870.46484375 3111.74609375 899.97265625 3073.80273438 899.97265625 3028.99804688 c 0
 899.97265625 3018.61132812 898.385742188 3008.59277344 895.44140625 2999.171875 c 2
 520.44140625 1799.171875 l 2
 518.840820312 1794.05078125 516.802734375 1789.01074219 514.4375 1784.27929688 c 0
 370.400390625 1496.20507812 305.856445312 1211.16894531 344.767578125 1024.39453125 c 0
 364.223632812 931.006835938 404.345703125 863.120117188 473.263671875 812.998046875 c 0
 542.181640625 762.875976562 646.059570312 729 799.994140625 729 c 0
 953.928710938 729 1057.80664062 762.875976562 1126.72460938 812.998046875 c 0
 1195.64257812 863.120117188 1235.76464844 931.006835938 1255.22070312 1024.39453125 c 0
 1294.13183594 1211.16894531 1229.58789062 1496.20507812 1085.55078125 1784.27929688 c 0
 1078.83300781 1797.71484375 1074.89648438 1812.91015625 1074.89648438 1828.94140625 c 0
 1074.89648438 1868.1015625 1097.45410156 1902.03417969 1130.2734375 1918.44335938 c 0
 1143.70898438 1925.16113281 1158.90429688 1929.09765625 1174.93554688 1929.09765625 c 0
 1214.09570312 1929.09765625 1248.02832031 1906.54003906 1264.4375 1873.72070312 c 0
 1420.40039062 1561.79492188 1505.85644531 1246.83007812 1451.01757812 983.60546875 c 0
 1423.59863281 851.993164062 1355.90820312 732.379882812 1244.35742188 651.251953125 c 0
 1132.80664062 570.124023438 983.55859375 529 799.994140625 529 c 0
 616.4296875 529 467.181640625 570.124023438 355.630859375 651.251953125 c 0
 244.080078125 732.379882812 176.389648438 851.993164062 148.970703125 983.60546875 c 0
 94.58984375 1244.63476562 178.26953125 1556.54199219 331.759765625 1865.91210938 c 1
 704.546875 3058.828125 l 2
 717.248046875 3099.47167969 755.125976562 3129.00195312 799.931640625 3129.00195312 c 0
 801.328125 3129.00195312 802.71875 3128.97265625 804.1015625 3128.91601562 c 0
EndSplineSet
EndChar

StartChar: uniE506
Encoding: 58630 58630 5
Width: 1600
Flags: HW
LayerCount: 2
Fore
SplineSet
795.8984375 3128.91601562 m 0
 797.28125 3128.97265625 798.586914062 3129.00195312 799.984375 3129.00195312 c 0
 844.7890625 3129.00195312 882.751953125 3099.47167969 895.453125 3058.828125 c 2
 1268.24023438 1865.91210938 l 1
 1421.73046875 1556.54199219 1505.41015625 1244.63476562 1451.02929688 983.60546875 c 0
 1423.61035156 851.993164062 1355.91992188 732.379882812 1244.36914062 651.251953125 c 0
 1132.81835938 570.124023438 983.5703125 529 800.005859375 529 c 0
 616.44140625 529 467.193359375 570.124023438 355.642578125 651.251953125 c 0
 244.091796875 732.379882812 176.401367188 851.993164062 148.982421875 983.60546875 c 0
 94.1435546875 1246.83007812 179.599609375 1561.79492188 335.5625 1873.72070312 c 0
 351.971679688 1906.54003906 385.943359375 1928.94238281 425.102539062 1928.94238281 c 0
 441.134765625 1928.94238281 456.291015625 1925.16113281 469.7265625 1918.44335938 c 0
 502.545898438 1902.03417969 524.948242188 1868.0625 524.948242188 1828.90332031 c 0
 524.948242188 1812.87109375 521.166992188 1797.71484375 514.44921875 1784.27929688 c 0
 370.412109375 1496.20507812 305.868164062 1211.16894531 344.779296875 1024.39453125 c 0
 364.235351562 931.006835938 404.357421875 863.120117188 473.275390625 812.998046875 c 0
 542.193359375 762.875976562 646.071289062 729 800.005859375 729 c 0
 953.940429688 729 1057.81835938 762.875976562 1126.73632812 812.998046875 c 0
 1195.65429688 863.120117188 1235.77636719 931.006835938 1255.23242188 1024.39453125 c 0
 1294.14355469 1211.16894531 1229.59960938 1496.20507812 1085.5625 1784.27929688 c 0
 1083.19726562 1789.01074219 1081.15917969 1794.05078125 1079.55859375 1799.171875 c 2
 704.55859375 2999.171875 l 2
 701.614257812 3008.59277344 700.004882812 3018.59277344 700.004882812 3028.97851562 c 0
 700.004882812 3073.78320312 729.53515625 3111.74609375 770.177734375 3124.44726562 c 0
 778.33203125 3126.99609375 786.998046875 3128.54980469 795.8984375 3128.91601562 c 0
EndSplineSet
EndChar

StartChar: uniE507
Encoding: 58631 58631 6
Width: 1600
Flags: HW
LayerCount: 2
Fore
SplineSet
799.994140625 1929 m 0
 983.55859375 1929 1132.80664062 1887.87597656 1244.35742188 1806.74804688 c 0
 1355.90820312 1725.62011719 1423.59863281 1606.00683594 1451.01757812 1474.39453125 c 0
 1505.85644531 1211.16992188 1420.40039062 896.205078125 1264.4375 584.279296875 c 0
 1248.02832031 551.459960938 1214.05664062 529.057617188 1174.89746094 529.057617188 c 0
 1158.86523438 529.057617188 1143.70898438 532.838867188 1130.2734375 539.556640625 c 0
 1097.45410156 555.965820312 1075.05175781 589.9375 1075.05175781 629.096679688 c 0
 1075.05175781 645.12890625 1078.83300781 660.28515625 1085.55078125 673.720703125 c 0
 1229.58789062 961.794921875 1294.13183594 1246.83105469 1255.22070312 1433.60546875 c 0
 1235.76464844 1526.99316406 1195.64257812 1594.87988281 1126.72460938 1645.00195312 c 0
 1057.80664062 1695.12402344 953.928710938 1729 799.994140625 1729 c 0
 646.059570312 1729 542.181640625 1695.12402344 473.263671875 1645.00195312 c 0
 404.345703125 1594.87988281 364.223632812 1526.99316406 344.767578125 1433.60546875 c 0
 305.856445312 1246.83105469 370.400390625 961.794921875 514.4375 673.720703125 c 0
 516.802734375 668.989257812 518.840820312 663.94921875 520.44140625 658.828125 c 2
 895.44140625 -541.171875 l 2
 898.385742188 -550.592773438 899.995117188 -560.592773438 899.995117188 -570.978515625 c 0
 899.995117188 -615.783203125 870.46484375 -653.74609375 829.822265625 -666.447265625 c 0
 820.401367188 -669.391601562 810.401367188 -671.000976562 800.015625 -671.000976562 c 0
 755.2109375 -671.000976562 717.248046875 -641.470703125 704.546875 -600.828125 c 2
 331.759765625 592.087890625 l 1
 178.26953125 901.458007812 94.58984375 1213.36523438 148.970703125 1474.39453125 c 0
 176.389648438 1606.00683594 244.080078125 1725.62011719 355.630859375 1806.74804688 c 0
 467.181640625 1887.87597656 616.4296875 1929 799.994140625 1929 c 0
EndSplineSet
EndChar

StartChar: uniE508
Encoding: 58632 58632 7
Width: 1600
Flags: HW
LayerCount: 2
Fore
SplineSet
800.005859375 1929 m 0
 983.5703125 1929 1132.81835938 1887.87597656 1244.36914062 1806.74804688 c 0
 1355.91992188 1725.62011719 1423.61035156 1606.00683594 1451.02929688 1474.39453125 c 0
 1505.41015625 1213.36523438 1421.73046875 901.458007812 1268.24023438 592.087890625 c 1
 895.453125 -600.828125 l 2
 882.751953125 -641.470703125 844.80859375 -670.978515625 800.00390625 -670.978515625 c 0
 789.6171875 -670.978515625 779.598632812 -669.391601562 770.177734375 -666.447265625 c 0
 729.53515625 -653.74609375 700.02734375 -615.802734375 700.02734375 -570.998046875 c 0
 700.02734375 -560.611328125 701.614257812 -550.592773438 704.55859375 -541.171875 c 2
 1079.55859375 658.828125 l 2
 1081.15917969 663.94921875 1083.19726562 668.989257812 1085.5625 673.720703125 c 0
 1229.59960938 961.794921875 1294.14355469 1246.83105469 1255.23242188 1433.60546875 c 0
 1235.77636719 1526.99316406 1195.65429688 1594.87988281 1126.73632812 1645.00195312 c 0
 1057.81835938 1695.12402344 953.940429688 1729 800.005859375 1729 c 0
 646.071289062 1729 542.193359375 1695.12402344 473.275390625 1645.00195312 c 0
 404.357421875 1594.87988281 364.235351562 1526.99316406 344.779296875 1433.60546875 c 0
 305.868164062 1246.83105469 370.412109375 961.794921875 514.44921875 673.720703125 c 0
 521.166992188 660.28515625 525.103515625 645.08984375 525.103515625 629.05859375 c 0
 525.103515625 589.8984375 502.545898438 555.965820312 469.7265625 539.556640625 c 0
 456.291015625 532.838867188 441.095703125 528.90234375 425.064453125 528.90234375 c 0
 385.904296875 528.90234375 351.971679688 551.459960938 335.5625 584.279296875 c 0
 179.599609375 896.205078125 94.1435546875 1211.16992188 148.982421875 1474.39453125 c 0
 176.401367188 1606.00683594 244.091796875 1725.62011719 355.642578125 1806.74804688 c 0
 467.193359375 1887.87597656 616.44140625 1929 800.005859375 1929 c 0
EndSplineSet
EndChar

StartChar: uniE509
Encoding: 58633 58633 8
Width: 1600
Flags: HW
LayerCount: 2
Fore
SplineSet
787.498046875 3128.21875 m 0
 791.619140625 3128.73730469 795.783203125 3128.95507812 800.04296875 3128.95507812 c 0
 813.775390625 3128.95507812 826.86328125 3126.18066406 838.779296875 3121.1640625 c 0
 874.7578125 3106.015625 899.9296875 3070.39160156 899.9296875 3028.93164062 c 0
 899.9296875 3015.19921875 897.154296875 3002.109375 892.13671875 2990.19335938 c 2
 389.44140625 1796.29492188 l 1
 621.771484375 1883.41308594 848.099609375 1921.12109375 1045.3671875 1880.0234375 c 0
 1176.98046875 1852.60449219 1296.59375 1784.9140625 1377.72070312 1673.36328125 c 0
 1458.84960938 1561.8125 1499.97265625 1412.56445312 1499.97265625 1229 c 0
 1499.97265625 1045.43554688 1458.84960938 896.1875 1377.72070312 784.63671875 c 0
 1296.59375 673.0859375 1176.98046875 605.395507812 1045.3671875 577.9765625 c 0
 782.142578125 523.137695312 467.177734375 608.59375 155.251953125 764.556640625 c 0
 122.43359375 780.965820312 100.03125 814.9375 100.03125 854.096679688 c 0
 100.03125 870.12890625 103.8125 885.28515625 110.529296875 898.720703125 c 0
 126.939453125 931.540039062 160.91015625 953.942382812 200.0703125 953.942382812 c 0
 216.1015625 953.942382812 231.2578125 950.161132812 244.693359375 943.443359375 c 0
 532.767578125 799.40625 817.8046875 734.862304688 1004.578125 773.7734375 c 0
 1097.96679688 793.229492188 1165.85351562 833.3515625 1215.97460938 902.26953125 c 0
 1266.09765625 971.1875 1299.97265625 1075.06542969 1299.97265625 1229 c 0
 1299.97265625 1382.93457031 1266.09765625 1486.8125 1215.97460938 1555.73046875 c 0
 1165.85351562 1624.6484375 1097.96679688 1664.77050781 1004.578125 1684.2265625 c 0
 817.8046875 1723.13769531 532.767578125 1658.59375 244.693359375 1514.55664062 c 0
 231.26171875 1507.84472656 216.060546875 1504.07910156 200.037109375 1504.07910156 c 0
 144.83984375 1504.07910156 100.02734375 1548.89160156 100.02734375 1604.08886719 c 0
 100.02734375 1617.81347656 102.796875 1630.89550781 107.80859375 1642.80664062 c 2
 707.80859375 3067.80664062 l 2
 721.40234375 3100.08789062 751.517578125 3123.6953125 787.498046875 3128.21875 c 0
EndSplineSet
EndChar

StartChar: uniE50A
Encoding: 58634 58634 9
Width: 1600
Flags: HW
LayerCount: 2
Fore
SplineSet
812.42578125 3128.21875 m 0
 848.407226562 3123.6953125 878.522460938 3100.08789062 892.115234375 3067.80664062 c 2
 1492.11523438 1642.80664062 l 2
 1497.12695312 1630.89550781 1499.84570312 1617.80273438 1499.84570312 1604.078125 c 0
 1499.84570312 1548.88085938 1455.03320312 1504.06835938 1399.8359375 1504.06835938 c 0
 1383.81152344 1504.06835938 1368.66210938 1507.84472656 1355.23046875 1514.55664062 c 0
 1067.15625 1658.59375 782.120117188 1723.13769531 595.345703125 1684.2265625 c 0
 501.958007812 1664.77050781 434.071289062 1624.6484375 383.94921875 1555.73046875 c 0
 333.827148438 1486.8125 299.951171875 1382.93457031 299.951171875 1229 c 0
 299.951171875 1075.06542969 333.827148438 971.1875 383.94921875 902.26953125 c 0
 434.071289062 833.3515625 501.958007812 793.229492188 595.345703125 773.7734375 c 0
 782.120117188 734.862304688 1067.15625 799.40625 1355.23046875 943.443359375 c 0
 1368.66601562 950.161132812 1383.86132812 954.09765625 1399.89257812 954.09765625 c 0
 1439.05273438 954.09765625 1472.98535156 931.540039062 1489.39453125 898.720703125 c 0
 1496.11230469 885.28515625 1500.04882812 870.08984375 1500.04882812 854.05859375 c 0
 1500.04882812 814.8984375 1477.49121094 780.965820312 1444.671875 764.556640625 c 0
 1132.74609375 608.59375 817.78125 523.137695312 554.556640625 577.9765625 c 0
 422.944335938 605.395507812 303.331054688 673.0859375 222.203125 784.63671875 c 0
 141.075195312 896.1875 99.951171875 1045.43554688 99.951171875 1229 c 0
 99.951171875 1412.56445312 141.075195312 1561.8125 222.203125 1673.36328125 c 0
 303.331054688 1784.9140625 422.944335938 1852.60449219 554.556640625 1880.0234375 c 0
 751.82421875 1921.12109375 978.153320312 1883.41308594 1210.48242188 1796.29492188 c 1
 707.787109375 2990.19335938 l 2
 702.76953125 3002.109375 699.880859375 3015.22265625 699.880859375 3028.95507812 c 0
 699.880859375 3070.41503906 725.166992188 3106.015625 761.14453125 3121.1640625 c 0
 773.060546875 3126.18066406 786.114257812 3129.00390625 799.845703125 3129.00390625 c 0
 804.106445312 3129.00390625 808.3046875 3128.73730469 812.42578125 3128.21875 c 0
EndSplineSet
EndChar

StartChar: uniE50B
Encoding: 58635 58635 10
Width: 1600
Flags: HW
LayerCount: 2
Fore
SplineSet
865.84765625 1896.6015625 m 0
 927.806640625 1897.30175781 987.86328125 1892.01953125 1045.44335938 1880.0234375 c 0
 1177.05566406 1852.60449219 1296.66894531 1784.9140625 1377.796875 1673.36328125 c 0
 1458.92480469 1561.8125 1500.04882812 1412.56445312 1500.04882812 1229 c 0
 1500.04882812 1045.43554688 1458.92480469 896.1875 1377.796875 784.63671875 c 0
 1296.66894531 673.0859375 1177.05566406 605.395507812 1045.44335938 577.9765625 c 0
 848.17578125 536.87890625 621.846679688 574.586914062 389.517578125 661.705078125 c 1
 892.212890625 -532.193359375 l 2
 897.23046875 -544.109375 900.119140625 -557.22265625 900.119140625 -570.955078125 c 0
 900.119140625 -612.415039062 874.833007812 -648.015625 838.85546875 -663.1640625 c 0
 826.939453125 -668.181640625 813.826171875 -671.0703125 800.09375 -671.0703125 c 0
 758.633789062 -671.0703125 723.033203125 -645.784179688 707.884765625 -609.806640625 c 2
 107.884765625 815.193359375 l 2
 102.873046875 827.104492188 100.154296875 840.197265625 100.154296875 853.921875 c 0
 100.154296875 909.119140625 144.966796875 953.931640625 200.1640625 953.931640625 c 0
 216.188476562 953.931640625 231.337890625 950.155273438 244.76953125 943.443359375 c 0
 532.84375 799.40625 817.879882812 734.862304688 1004.65429688 773.7734375 c 0
 1098.04199219 793.229492188 1165.92871094 833.3515625 1216.05078125 902.26953125 c 0
 1266.17285156 971.1875 1300.04882812 1075.06542969 1300.04882812 1229 c 0
 1300.04882812 1382.93457031 1266.17285156 1486.8125 1216.05078125 1555.73046875 c 0
 1165.92871094 1624.6484375 1098.04199219 1664.77050781 1004.65429688 1684.2265625 c 0
 817.879882812 1723.13769531 532.84375 1658.59375 244.76953125 1514.55664062 c 0
 231.333984375 1507.83886719 216.138671875 1503.90234375 200.107421875 1503.90234375 c 0
 160.947265625 1503.90234375 127.014648438 1526.45996094 110.60546875 1559.27929688 c 0
 103.887695312 1572.71484375 99.951171875 1587.91015625 99.951171875 1603.94140625 c 0
 99.951171875 1643.1015625 122.508789062 1677.03417969 155.328125 1693.44335938 c 0
 399.01953125 1815.2890625 644.56640625 1894.10058594 865.84765625 1896.6015625 c 0
EndSplineSet
EndChar

StartChar: uniE50C
Encoding: 58636 58636 11
Width: 1600
Flags: HW
LayerCount: 2
Fore
SplineSet
734.228515625 1896.6015625 m 0
 955.509765625 1894.10058594 1201.05664062 1815.2890625 1444.74804688 1693.44335938 c 0
 1477.56640625 1677.03417969 1499.96875 1643.0625 1499.96875 1603.90332031 c 0
 1499.96875 1587.87109375 1496.1875 1572.71484375 1489.47070312 1559.27929688 c 0
 1473.06054688 1526.45996094 1439.08984375 1504.05761719 1399.9296875 1504.05761719 c 0
 1383.8984375 1504.05761719 1368.7421875 1507.83886719 1355.30664062 1514.55664062 c 0
 1067.23242188 1658.59375 782.1953125 1723.13769531 595.421875 1684.2265625 c 0
 502.033203125 1664.77050781 434.146484375 1624.6484375 384.025390625 1555.73046875 c 0
 333.90234375 1486.8125 300.02734375 1382.93457031 300.02734375 1229 c 0
 300.02734375 1075.06542969 333.90234375 971.1875 384.025390625 902.26953125 c 0
 434.146484375 833.3515625 502.033203125 793.229492188 595.421875 773.7734375 c 0
 782.1953125 734.862304688 1067.23242188 799.40625 1355.30664062 943.443359375 c 0
 1368.73828125 950.155273438 1383.93945312 953.920898438 1399.96289062 953.920898438 c 0
 1455.16015625 953.920898438 1499.97265625 909.108398438 1499.97265625 853.911132812 c 0
 1499.97265625 840.186523438 1497.203125 827.104492188 1492.19140625 815.193359375 c 2
 892.19140625 -609.806640625 l 2
 877.04296875 -645.784179688 841.41796875 -670.956054688 799.958984375 -670.956054688 c 0
 786.2265625 -670.956054688 773.13671875 -668.181640625 761.220703125 -663.1640625 c 0
 725.2421875 -648.015625 700.0703125 -612.391601562 700.0703125 -570.931640625 c 0
 700.0703125 -557.19921875 702.845703125 -544.109375 707.86328125 -532.193359375 c 2
 1210.55859375 661.705078125 l 1
 978.228515625 574.586914062 751.900390625 536.87890625 554.6328125 577.9765625 c 0
 423.01953125 605.395507812 303.40625 673.0859375 222.279296875 784.63671875 c 0
 141.150390625 896.1875 100.02734375 1045.43554688 100.02734375 1229 c 0
 100.02734375 1412.56445312 141.150390625 1561.8125 222.279296875 1673.36328125 c 0
 303.40625 1784.9140625 423.01953125 1852.60449219 554.6328125 1880.0234375 c 0
 612.212890625 1892.01953125 672.26953125 1897.30175781 734.228515625 1896.6015625 c 0
EndSplineSet
EndChar

StartChar: uniE50D
Encoding: 58637 58637 12
Width: 1600
Flags: HW
LayerCount: 2
Fore
SplineSet
419.0078125 1928.8203125 m 0
 421.017578125 1928.94140625 423.05859375 1928.94140625 425.09765625 1928.94140625 c 0
 441.12890625 1928.94140625 456.28515625 1925.16113281 469.720703125 1918.44335938 c 0
 502.540039062 1902.03417969 524.942382812 1868.0625 524.942382812 1828.90332031 c 0
 524.942382812 1812.87109375 521.161132812 1797.71484375 514.443359375 1784.27929688 c 0
 370.40625 1496.20507812 305.862304688 1211.16894531 344.7734375 1024.39453125 c 0
 364.229492188 931.006835938 404.3515625 863.120117188 473.26953125 812.998046875 c 0
 526.047851562 774.61328125 599.434570312 745.82421875 700 734.4140625 c 1
 700 1454 l 2
 700 1509.19140625 744.80859375 1554 800 1554 c 0
 855.19140625 1554 900 1509.19140625 900 1454 c 2
 900 734.4140625 l 1
 1000.56542969 745.82421875 1073.95214844 774.61328125 1126.73046875 812.998046875 c 0
 1195.6484375 863.120117188 1235.77050781 931.006835938 1255.2265625 1024.39453125 c 0
 1294.13769531 1211.16894531 1229.59375 1496.20507812 1085.55664062 1784.27929688 c 0
 1078.83886719 1797.71484375 1074.90234375 1812.91015625 1074.90234375 1828.94140625 c 0
 1074.90234375 1868.1015625 1097.45996094 1902.03417969 1130.27929688 1918.44335938 c 0
 1143.71484375 1925.16113281 1158.91015625 1929.09765625 1174.94140625 1929.09765625 c 0
 1214.1015625 1929.09765625 1248.03417969 1906.54003906 1264.44335938 1873.72070312 c 0
 1420.40625 1561.79492188 1505.86230469 1246.83007812 1451.0234375 983.60546875 c 0
 1423.60449219 851.993164062 1355.9140625 732.379882812 1244.36328125 651.251953125 c 0
 1132.8125 570.124023438 983.564453125 529 800 529 c 0
 616.435546875 529 467.1875 570.124023438 355.63671875 651.251953125 c 0
 244.0859375 732.379882812 176.395507812 851.993164062 148.9765625 983.60546875 c 0
 94.1376953125 1246.83007812 179.59375 1561.79492188 335.556640625 1873.72070312 c 0
 351.111328125 1904.83007812 382.434570312 1926.625 419.0078125 1928.8203125 c 0
EndSplineSet
EndChar

StartChar: uniE50E
Encoding: 58638 58638 13
Width: 1600
Flags: HW
LayerCount: 2
Fore
SplineSet
734.15234375 1896.6015625 m 0
 955.43359375 1894.10058594 1200.98046875 1815.2890625 1444.671875 1693.44335938 c 0
 1477.49121094 1677.03417969 1499.89355469 1643.0625 1499.89355469 1603.90332031 c 0
 1499.89355469 1587.87109375 1496.11230469 1572.71484375 1489.39453125 1559.27929688 c 0
 1472.98535156 1526.45996094 1439.01367188 1504.05761719 1399.85449219 1504.05761719 c 0
 1383.82226562 1504.05761719 1368.66601562 1507.83886719 1355.23046875 1514.55664062 c 0
 1067.15625 1658.59375 782.120117188 1723.13769531 595.345703125 1684.2265625 c 0
 501.958007812 1664.77050781 434.071289062 1624.6484375 383.94921875 1555.73046875 c 0
 345.564453125 1502.95214844 316.775390625 1429.56542969 305.365234375 1329 c 1
 1024.95117188 1329 l 2
 1080.14257812 1329 1124.95117188 1284.19140625 1124.95117188 1229 c 0
 1124.95117188 1173.80859375 1080.14257812 1129 1024.95117188 1129 c 2
 305.365234375 1129 l 1
 316.775390625 1028.43457031 345.564453125 955.047851562 383.94921875 902.26953125 c 0
 434.071289062 833.3515625 501.958007812 793.229492188 595.345703125 773.7734375 c 0
 782.120117188 734.862304688 1067.15625 799.40625 1355.23046875 943.443359375 c 0
 1368.66601562 950.161132812 1383.86132812 954.09765625 1399.89257812 954.09765625 c 0
 1439.05273438 954.09765625 1472.98535156 931.540039062 1489.39453125 898.720703125 c 0
 1496.11230469 885.28515625 1500.04882812 870.08984375 1500.04882812 854.05859375 c 0
 1500.04882812 814.8984375 1477.49121094 780.965820312 1444.671875 764.556640625 c 0
 1132.74609375 608.59375 817.78125 523.137695312 554.556640625 577.9765625 c 0
 422.944335938 605.395507812 303.331054688 673.0859375 222.203125 784.63671875 c 0
 141.075195312 896.1875 99.951171875 1045.43554688 99.951171875 1229 c 0
 99.951171875 1412.56445312 141.075195312 1561.8125 222.203125 1673.36328125 c 0
 303.331054688 1784.9140625 422.944335938 1852.60449219 554.556640625 1880.0234375 c 0
 612.13671875 1892.01953125 672.193359375 1897.30175781 734.15234375 1896.6015625 c 0
EndSplineSet
EndChar

StartChar: uniE50F
Encoding: 58639 58639 14
Width: 1600
Flags: HW
LayerCount: 2
Fore
SplineSet
800 1929 m 0
 983.564453125 1929 1132.8125 1887.87597656 1244.36328125 1806.74804688 c 0
 1355.9140625 1725.62011719 1423.60449219 1606.00683594 1451.0234375 1474.39453125 c 0
 1505.86230469 1211.16992188 1420.40625 896.205078125 1264.44335938 584.279296875 c 0
 1248.03417969 551.459960938 1214.0625 529.057617188 1174.90332031 529.057617188 c 0
 1158.87109375 529.057617188 1143.71484375 532.838867188 1130.27929688 539.556640625 c 0
 1097.45996094 555.965820312 1075.05761719 589.9375 1075.05761719 629.096679688 c 0
 1075.05761719 645.12890625 1078.83886719 660.28515625 1085.55664062 673.720703125 c 0
 1229.59375 961.794921875 1294.13769531 1246.83105469 1255.2265625 1433.60546875 c 0
 1235.77050781 1526.99316406 1195.6484375 1594.87988281 1126.73046875 1645.00195312 c 0
 1073.95214844 1683.38671875 1000.56542969 1712.17578125 900 1723.5859375 c 1
 900 1004 l 2
 900 948.80859375 855.19140625 904 800 904 c 0
 744.80859375 904 700 948.80859375 700 1004 c 2
 700 1723.5859375 l 1
 599.434570312 1712.17578125 526.047851562 1683.38671875 473.26953125 1645.00195312 c 0
 404.3515625 1594.87988281 364.229492188 1526.99316406 344.7734375 1433.60546875 c 0
 305.862304688 1246.83105469 370.40625 961.794921875 514.443359375 673.720703125 c 0
 521.161132812 660.28515625 525.09765625 645.08984375 525.09765625 629.05859375 c 0
 525.09765625 589.8984375 502.540039062 555.965820312 469.720703125 539.556640625 c 0
 456.28515625 532.838867188 441.08984375 528.90234375 425.05859375 528.90234375 c 0
 385.8984375 528.90234375 351.965820312 551.459960938 335.556640625 584.279296875 c 0
 179.59375 896.205078125 94.1376953125 1211.16992188 148.9765625 1474.39453125 c 0
 176.395507812 1606.00683594 244.0859375 1725.62011719 355.63671875 1806.74804688 c 0
 467.1875 1887.87597656 616.435546875 1929 800 1929 c 0
EndSplineSet
EndChar

StartChar: uniE510
Encoding: 58640 58640 15
Width: 1600
Flags: HW
LayerCount: 2
Fore
SplineSet
865.84765625 1896.6015625 m 0
 927.806640625 1897.30175781 987.86328125 1892.01953125 1045.44335938 1880.0234375 c 0
 1177.05566406 1852.60449219 1296.66894531 1784.9140625 1377.796875 1673.36328125 c 0
 1458.92480469 1561.8125 1500.04882812 1412.56445312 1500.04882812 1229 c 0
 1500.04882812 1045.43554688 1458.92480469 896.1875 1377.796875 784.63671875 c 0
 1296.66894531 673.0859375 1177.05566406 605.395507812 1045.44335938 577.9765625 c 0
 782.21875 523.137695312 467.25390625 608.59375 155.328125 764.556640625 c 0
 122.508789062 780.965820312 100.106445312 814.9375 100.106445312 854.096679688 c 0
 100.106445312 870.12890625 103.887695312 885.28515625 110.60546875 898.720703125 c 0
 127.014648438 931.540039062 160.986328125 953.942382812 200.145507812 953.942382812 c 0
 216.177734375 953.942382812 231.333984375 950.161132812 244.76953125 943.443359375 c 0
 532.84375 799.40625 817.879882812 734.862304688 1004.65429688 773.7734375 c 0
 1098.04199219 793.229492188 1165.92871094 833.3515625 1216.05078125 902.26953125 c 0
 1254.43554688 955.047851562 1283.22460938 1028.43457031 1294.63476562 1129 c 1
 575.048828125 1129 l 2
 519.857421875 1129 475.048828125 1173.80859375 475.048828125 1229 c 0
 475.048828125 1284.19140625 519.857421875 1329 575.048828125 1329 c 2
 1294.63476562 1329 l 1
 1283.22460938 1429.56542969 1254.43554688 1502.95214844 1216.05078125 1555.73046875 c 0
 1165.92871094 1624.6484375 1098.04199219 1664.77050781 1004.65429688 1684.2265625 c 0
 817.879882812 1723.13769531 532.84375 1658.59375 244.76953125 1514.55664062 c 0
 231.333984375 1507.83886719 216.138671875 1503.90234375 200.107421875 1503.90234375 c 0
 160.947265625 1503.90234375 127.014648438 1526.45996094 110.60546875 1559.27929688 c 0
 103.887695312 1572.71484375 99.951171875 1587.91015625 99.951171875 1603.94140625 c 0
 99.951171875 1643.1015625 122.508789062 1677.03417969 155.328125 1693.44335938 c 0
 399.01953125 1815.2890625 644.56640625 1894.10058594 865.84765625 1896.6015625 c 0
EndSplineSet
EndChar

StartChar: uniE511
Encoding: 58641 58641 16
Width: 1600
Flags: HW
LayerCount: 2
Fore
SplineSet
804.1015625 3128.91601562 m 0
 813.001953125 3128.54980469 821.66796875 3126.99609375 829.822265625 3124.44726562 c 0
 870.46484375 3111.74609375 899.97265625 3073.80273438 899.97265625 3028.99804688 c 0
 899.97265625 3018.61132812 898.385742188 3008.59277344 895.44140625 2999.171875 c 2
 520.44140625 1799.171875 l 2
 518.840820312 1794.05078125 516.802734375 1789.01074219 514.4375 1784.27929688 c 0
 370.400390625 1496.20507812 305.856445312 1211.16894531 344.767578125 1024.39453125 c 0
 364.223632812 931.006835938 404.345703125 863.120117188 473.263671875 812.998046875 c 0
 526.041992188 774.61328125 599.428710938 745.82421875 699.994140625 734.4140625 c 1
 699.994140625 1454 l 2
 699.994140625 1509.19140625 744.802734375 1554 799.994140625 1554 c 0
 855.185546875 1554 899.994140625 1509.19140625 899.994140625 1454 c 2
 899.994140625 734.4140625 l 1
 1000.55957031 745.82421875 1073.94628906 774.61328125 1126.72460938 812.998046875 c 0
 1195.64257812 863.120117188 1235.76464844 931.006835938 1255.22070312 1024.39453125 c 0
 1294.13183594 1211.16894531 1229.58789062 1496.20507812 1085.55078125 1784.27929688 c 0
 1078.83300781 1797.71484375 1074.89648438 1812.91015625 1074.89648438 1828.94140625 c 0
 1074.89648438 1868.1015625 1097.45410156 1902.03417969 1130.2734375 1918.44335938 c 0
 1143.70898438 1925.16113281 1158.90429688 1929.09765625 1174.93554688 1929.09765625 c 0
 1214.09570312 1929.09765625 1248.02832031 1906.54003906 1264.4375 1873.72070312 c 0
 1420.40039062 1561.79492188 1505.85644531 1246.83007812 1451.01757812 983.60546875 c 0
 1423.59863281 851.993164062 1355.90820312 732.379882812 1244.35742188 651.251953125 c 0
 1132.80664062 570.124023438 983.55859375 529 799.994140625 529 c 0
 616.4296875 529 467.181640625 570.124023438 355.630859375 651.251953125 c 0
 244.080078125 732.379882812 176.389648438 851.993164062 148.970703125 983.60546875 c 0
 94.58984375 1244.63476562 178.26953125 1556.54199219 331.759765625 1865.91210938 c 1
 704.546875 3058.828125 l 2
 717.248046875 3099.47167969 755.125976562 3129.00195312 799.931640625 3129.00195312 c 0
 801.328125 3129.00195312 802.71875 3128.97265625 804.1015625 3128.91601562 c 0
EndSplineSet
EndChar

StartChar: uniE512
Encoding: 58642 58642 17
Width: 1600
Flags: HW
LayerCount: 2
Fore
SplineSet
795.8984375 3128.91601562 m 0
 797.28125 3128.97265625 798.586914062 3129.00195312 799.984375 3129.00195312 c 0
 844.7890625 3129.00195312 882.751953125 3099.47167969 895.453125 3058.828125 c 2
 1268.24023438 1865.91210938 l 1
 1421.73046875 1556.54199219 1505.41015625 1244.63476562 1451.02929688 983.60546875 c 0
 1423.61035156 851.993164062 1355.91992188 732.379882812 1244.36914062 651.251953125 c 0
 1132.81835938 570.124023438 983.5703125 529 800.005859375 529 c 0
 616.44140625 529 467.193359375 570.124023438 355.642578125 651.251953125 c 0
 244.091796875 732.379882812 176.401367188 851.993164062 148.982421875 983.60546875 c 0
 94.1435546875 1246.83007812 179.599609375 1561.79492188 335.5625 1873.72070312 c 0
 351.971679688 1906.54003906 385.943359375 1928.94238281 425.102539062 1928.94238281 c 0
 441.134765625 1928.94238281 456.291015625 1925.16113281 469.7265625 1918.44335938 c 0
 502.545898438 1902.03417969 524.948242188 1868.0625 524.948242188 1828.90332031 c 0
 524.948242188 1812.87109375 521.166992188 1797.71484375 514.44921875 1784.27929688 c 0
 370.412109375 1496.20507812 305.868164062 1211.16894531 344.779296875 1024.39453125 c 0
 364.235351562 931.006835938 404.357421875 863.120117188 473.275390625 812.998046875 c 0
 526.053710938 774.61328125 599.440429688 745.82421875 700.005859375 734.4140625 c 1
 700.005859375 1454 l 2
 700.005859375 1509.19140625 744.814453125 1554 800.005859375 1554 c 0
 855.197265625 1554 900.005859375 1509.19140625 900.005859375 1454 c 2
 900.005859375 734.4140625 l 1
 1000.57128906 745.82421875 1073.95800781 774.61328125 1126.73632812 812.998046875 c 0
 1195.65429688 863.120117188 1235.77636719 931.006835938 1255.23242188 1024.39453125 c 0
 1294.14355469 1211.16894531 1229.59960938 1496.20507812 1085.5625 1784.27929688 c 0
 1083.19726562 1789.01074219 1081.15917969 1794.05078125 1079.55859375 1799.171875 c 2
 704.55859375 2999.171875 l 2
 701.614257812 3008.59277344 700.004882812 3018.59277344 700.004882812 3028.97851562 c 0
 700.004882812 3073.78320312 729.53515625 3111.74609375 770.177734375 3124.44726562 c 0
 778.33203125 3126.99609375 786.998046875 3128.54980469 795.8984375 3128.91601562 c 0
EndSplineSet
EndChar

StartChar: uniE513
Encoding: 58643 58643 18
Width: 1600
Flags: HW
LayerCount: 2
Fore
SplineSet
799.994140625 1929 m 0
 983.55859375 1929 1132.80664062 1887.87597656 1244.35742188 1806.74804688 c 0
 1355.90820312 1725.62011719 1423.59863281 1606.00683594 1451.01757812 1474.39453125 c 0
 1505.85644531 1211.16992188 1420.40039062 896.205078125 1264.4375 584.279296875 c 0
 1248.02832031 551.459960938 1214.05664062 529.057617188 1174.89746094 529.057617188 c 0
 1158.86523438 529.057617188 1143.70898438 532.838867188 1130.2734375 539.556640625 c 0
 1097.45410156 555.965820312 1075.05175781 589.9375 1075.05175781 629.096679688 c 0
 1075.05175781 645.12890625 1078.83300781 660.28515625 1085.55078125 673.720703125 c 0
 1229.58789062 961.794921875 1294.13183594 1246.83105469 1255.22070312 1433.60546875 c 0
 1235.76464844 1526.99316406 1195.64257812 1594.87988281 1126.72460938 1645.00195312 c 0
 1073.94628906 1683.38671875 1000.55957031 1712.17578125 899.994140625 1723.5859375 c 1
 899.994140625 1004 l 2
 899.994140625 948.80859375 855.185546875 904 799.994140625 904 c 0
 744.802734375 904 699.994140625 948.80859375 699.994140625 1004 c 2
 699.994140625 1723.5859375 l 1
 599.428710938 1712.17578125 526.041992188 1683.38671875 473.263671875 1645.00195312 c 0
 404.345703125 1594.87988281 364.223632812 1526.99316406 344.767578125 1433.60546875 c 0
 305.856445312 1246.83105469 370.400390625 961.794921875 514.4375 673.720703125 c 0
 516.802734375 668.989257812 518.840820312 663.94921875 520.44140625 658.828125 c 2
 895.44140625 -541.171875 l 2
 898.385742188 -550.592773438 899.995117188 -560.592773438 899.995117188 -570.978515625 c 0
 899.995117188 -615.783203125 870.46484375 -653.74609375 829.822265625 -666.447265625 c 0
 820.401367188 -669.391601562 810.401367188 -671.000976562 800.015625 -671.000976562 c 0
 755.2109375 -671.000976562 717.248046875 -641.470703125 704.546875 -600.828125 c 2
 331.759765625 592.087890625 l 1
 178.26953125 901.458007812 94.58984375 1213.36523438 148.970703125 1474.39453125 c 0
 176.389648438 1606.00683594 244.080078125 1725.62011719 355.630859375 1806.74804688 c 0
 467.181640625 1887.87597656 616.4296875 1929 799.994140625 1929 c 0
EndSplineSet
EndChar

StartChar: uniE514
Encoding: 58644 58644 19
Width: 1600
Flags: HW
LayerCount: 2
Fore
SplineSet
800.005859375 1929 m 0
 983.5703125 1929 1132.81835938 1887.87597656 1244.36914062 1806.74804688 c 0
 1355.91992188 1725.62011719 1423.61035156 1606.00683594 1451.02929688 1474.39453125 c 0
 1505.41015625 1213.36523438 1421.73046875 901.458007812 1268.24023438 592.087890625 c 1
 895.453125 -600.828125 l 2
 882.751953125 -641.470703125 844.80859375 -670.978515625 800.00390625 -670.978515625 c 0
 789.6171875 -670.978515625 779.598632812 -669.391601562 770.177734375 -666.447265625 c 0
 729.53515625 -653.74609375 700.02734375 -615.802734375 700.02734375 -570.998046875 c 0
 700.02734375 -560.611328125 701.614257812 -550.592773438 704.55859375 -541.171875 c 2
 1079.55859375 658.828125 l 2
 1081.15917969 663.94921875 1083.19726562 668.989257812 1085.5625 673.720703125 c 0
 1229.59960938 961.794921875 1294.14355469 1246.83105469 1255.23242188 1433.60546875 c 0
 1235.77636719 1526.99316406 1195.65429688 1594.87988281 1126.73632812 1645.00195312 c 0
 1073.95800781 1683.38671875 1000.57128906 1712.17578125 900.005859375 1723.5859375 c 1
 900.005859375 1004 l 2
 900.005859375 948.80859375 855.197265625 904 800.005859375 904 c 0
 744.814453125 904 700.005859375 948.80859375 700.005859375 1004 c 2
 700.005859375 1723.5859375 l 1
 599.440429688 1712.17578125 526.053710938 1683.38671875 473.275390625 1645.00195312 c 0
 404.357421875 1594.87988281 364.235351562 1526.99316406 344.779296875 1433.60546875 c 0
 305.868164062 1246.83105469 370.412109375 961.794921875 514.44921875 673.720703125 c 0
 521.166992188 660.28515625 525.103515625 645.08984375 525.103515625 629.05859375 c 0
 525.103515625 589.8984375 502.545898438 555.965820312 469.7265625 539.556640625 c 0
 456.291015625 532.838867188 441.095703125 528.90234375 425.064453125 528.90234375 c 0
 385.904296875 528.90234375 351.971679688 551.459960938 335.5625 584.279296875 c 0
 179.599609375 896.205078125 94.1435546875 1211.16992188 148.982421875 1474.39453125 c 0
 176.401367188 1606.00683594 244.091796875 1725.62011719 355.642578125 1806.74804688 c 0
 467.193359375 1887.87597656 616.44140625 1929 800.005859375 1929 c 0
EndSplineSet
EndChar

StartChar: uniE515
Encoding: 58645 58645 20
Width: 1600
Flags: HW
LayerCount: 2
Fore
SplineSet
787.498046875 3128.21875 m 0
 791.619140625 3128.73730469 795.783203125 3128.95507812 800.04296875 3128.95507812 c 0
 813.775390625 3128.95507812 826.86328125 3126.18066406 838.779296875 3121.1640625 c 0
 874.7578125 3106.015625 899.9296875 3070.39160156 899.9296875 3028.93164062 c 0
 899.9296875 3015.19921875 897.154296875 3002.109375 892.13671875 2990.19335938 c 2
 389.44140625 1796.29492188 l 1
 621.771484375 1883.41308594 848.099609375 1921.12109375 1045.3671875 1880.0234375 c 0
 1176.98046875 1852.60449219 1296.59375 1784.9140625 1377.72070312 1673.36328125 c 0
 1458.84960938 1561.8125 1499.97265625 1412.56445312 1499.97265625 1229 c 0
 1499.97265625 1045.43554688 1458.84960938 896.1875 1377.72070312 784.63671875 c 0
 1296.59375 673.0859375 1176.98046875 605.395507812 1045.3671875 577.9765625 c 0
 782.142578125 523.137695312 467.177734375 608.59375 155.251953125 764.556640625 c 0
 122.43359375 780.965820312 100.03125 814.9375 100.03125 854.096679688 c 0
 100.03125 870.12890625 103.8125 885.28515625 110.529296875 898.720703125 c 0
 126.939453125 931.540039062 160.91015625 953.942382812 200.0703125 953.942382812 c 0
 216.1015625 953.942382812 231.2578125 950.161132812 244.693359375 943.443359375 c 0
 532.767578125 799.40625 817.8046875 734.862304688 1004.578125 773.7734375 c 0
 1097.96679688 793.229492188 1165.85351562 833.3515625 1215.97460938 902.26953125 c 0
 1254.359375 955.047851562 1283.1484375 1028.43457031 1294.55859375 1129 c 1
 574.97265625 1129 l 2
 519.78125 1129 474.97265625 1173.80859375 474.97265625 1229 c 0
 474.97265625 1284.19140625 519.78125 1329 574.97265625 1329 c 2
 1294.55859375 1329 l 1
 1283.1484375 1429.56542969 1254.359375 1502.95214844 1215.97460938 1555.73046875 c 0
 1165.85351562 1624.6484375 1097.96679688 1664.77050781 1004.578125 1684.2265625 c 0
 817.8046875 1723.13769531 532.767578125 1658.59375 244.693359375 1514.55664062 c 0
 231.26171875 1507.84472656 216.060546875 1504.07910156 200.037109375 1504.07910156 c 0
 144.83984375 1504.07910156 100.02734375 1548.89160156 100.02734375 1604.08886719 c 0
 100.02734375 1617.81347656 102.796875 1630.89550781 107.80859375 1642.80664062 c 2
 707.80859375 3067.80664062 l 2
 721.40234375 3100.08789062 751.517578125 3123.6953125 787.498046875 3128.21875 c 0
EndSplineSet
EndChar

StartChar: uniE516
Encoding: 58646 58646 21
Width: 1600
Flags: HW
LayerCount: 2
Fore
SplineSet
812.42578125 3128.21875 m 0
 848.407226562 3123.6953125 878.522460938 3100.08789062 892.115234375 3067.80664062 c 2
 1492.11523438 1642.80664062 l 2
 1497.12695312 1630.89550781 1499.84570312 1617.80273438 1499.84570312 1604.078125 c 0
 1499.84570312 1548.88085938 1455.03320312 1504.06835938 1399.8359375 1504.06835938 c 0
 1383.81152344 1504.06835938 1368.66210938 1507.84472656 1355.23046875 1514.55664062 c 0
 1067.15625 1658.59375 782.120117188 1723.13769531 595.345703125 1684.2265625 c 0
 501.958007812 1664.77050781 434.071289062 1624.6484375 383.94921875 1555.73046875 c 0
 345.564453125 1502.95214844 316.775390625 1429.56542969 305.365234375 1329 c 1
 1024.95117188 1329 l 2
 1080.14257812 1329 1124.95117188 1284.19140625 1124.95117188 1229 c 0
 1124.95117188 1173.80859375 1080.14257812 1129 1024.95117188 1129 c 2
 305.365234375 1129 l 1
 316.775390625 1028.43457031 345.564453125 955.047851562 383.94921875 902.26953125 c 0
 434.071289062 833.3515625 501.958007812 793.229492188 595.345703125 773.7734375 c 0
 782.120117188 734.862304688 1067.15625 799.40625 1355.23046875 943.443359375 c 0
 1368.66601562 950.161132812 1383.86132812 954.09765625 1399.89257812 954.09765625 c 0
 1439.05273438 954.09765625 1472.98535156 931.540039062 1489.39453125 898.720703125 c 0
 1496.11230469 885.28515625 1500.04882812 870.08984375 1500.04882812 854.05859375 c 0
 1500.04882812 814.8984375 1477.49121094 780.965820312 1444.671875 764.556640625 c 0
 1132.74609375 608.59375 817.78125 523.137695312 554.556640625 577.9765625 c 0
 422.944335938 605.395507812 303.331054688 673.0859375 222.203125 784.63671875 c 0
 141.075195312 896.1875 99.951171875 1045.43554688 99.951171875 1229 c 0
 99.951171875 1412.56445312 141.075195312 1561.8125 222.203125 1673.36328125 c 0
 303.331054688 1784.9140625 422.944335938 1852.60449219 554.556640625 1880.0234375 c 0
 751.82421875 1921.12109375 978.153320312 1883.41308594 1210.48242188 1796.29492188 c 1
 707.787109375 2990.19335938 l 2
 702.76953125 3002.109375 699.880859375 3015.22265625 699.880859375 3028.95507812 c 0
 699.880859375 3070.41503906 725.166992188 3106.015625 761.14453125 3121.1640625 c 0
 773.060546875 3126.18066406 786.114257812 3129.00390625 799.845703125 3129.00390625 c 0
 804.106445312 3129.00390625 808.3046875 3128.73730469 812.42578125 3128.21875 c 0
EndSplineSet
EndChar

StartChar: uniE517
Encoding: 58647 58647 22
Width: 1600
Flags: HW
LayerCount: 2
Fore
SplineSet
865.84765625 1896.6015625 m 0
 927.806640625 1897.30175781 987.86328125 1892.01953125 1045.44335938 1880.0234375 c 0
 1177.05566406 1852.60449219 1296.66894531 1784.9140625 1377.796875 1673.36328125 c 0
 1458.92480469 1561.8125 1500.04882812 1412.56445312 1500.04882812 1229 c 0
 1500.04882812 1045.43554688 1458.92480469 896.1875 1377.796875 784.63671875 c 0
 1296.66894531 673.0859375 1177.05566406 605.395507812 1045.44335938 577.9765625 c 0
 848.17578125 536.87890625 621.846679688 574.586914062 389.517578125 661.705078125 c 1
 892.212890625 -532.193359375 l 2
 897.23046875 -544.109375 900.119140625 -557.22265625 900.119140625 -570.955078125 c 0
 900.119140625 -612.415039062 874.833007812 -648.015625 838.85546875 -663.1640625 c 0
 826.939453125 -668.181640625 813.826171875 -671.0703125 800.09375 -671.0703125 c 0
 758.633789062 -671.0703125 723.033203125 -645.784179688 707.884765625 -609.806640625 c 2
 107.884765625 815.193359375 l 2
 102.873046875 827.104492188 100.154296875 840.197265625 100.154296875 853.921875 c 0
 100.154296875 909.119140625 144.966796875 953.931640625 200.1640625 953.931640625 c 0
 216.188476562 953.931640625 231.337890625 950.155273438 244.76953125 943.443359375 c 0
 532.84375 799.40625 817.879882812 734.862304688 1004.65429688 773.7734375 c 0
 1098.04199219 793.229492188 1165.92871094 833.3515625 1216.05078125 902.26953125 c 0
 1254.43554688 955.047851562 1283.22460938 1028.43457031 1294.63476562 1129 c 1
 575.048828125 1129 l 2
 519.857421875 1129 475.048828125 1173.80859375 475.048828125 1229 c 0
 475.048828125 1284.19140625 519.857421875 1329 575.048828125 1329 c 2
 1294.63476562 1329 l 1
 1283.22460938 1429.56542969 1254.43554688 1502.95214844 1216.05078125 1555.73046875 c 0
 1165.92871094 1624.6484375 1098.04199219 1664.77050781 1004.65429688 1684.2265625 c 0
 817.879882812 1723.13769531 532.84375 1658.59375 244.76953125 1514.55664062 c 0
 231.333984375 1507.83886719 216.138671875 1503.90234375 200.107421875 1503.90234375 c 0
 160.947265625 1503.90234375 127.014648438 1526.45996094 110.60546875 1559.27929688 c 0
 103.887695312 1572.71484375 99.951171875 1587.91015625 99.951171875 1603.94140625 c 0
 99.951171875 1643.1015625 122.508789062 1677.03417969 155.328125 1693.44335938 c 0
 399.01953125 1815.2890625 644.56640625 1894.10058594 865.84765625 1896.6015625 c 0
EndSplineSet
EndChar

StartChar: uniE518
Encoding: 58648 58648 23
Width: 1600
Flags: HW
LayerCount: 2
Fore
SplineSet
734.228515625 1896.6015625 m 0
 955.509765625 1894.10058594 1201.05664062 1815.2890625 1444.74804688 1693.44335938 c 0
 1477.56640625 1677.03417969 1499.96875 1643.0625 1499.96875 1603.90332031 c 0
 1499.96875 1587.87109375 1496.1875 1572.71484375 1489.47070312 1559.27929688 c 0
 1473.06054688 1526.45996094 1439.08984375 1504.05761719 1399.9296875 1504.05761719 c 0
 1383.8984375 1504.05761719 1368.7421875 1507.83886719 1355.30664062 1514.55664062 c 0
 1067.23242188 1658.59375 782.1953125 1723.13769531 595.421875 1684.2265625 c 0
 502.033203125 1664.77050781 434.146484375 1624.6484375 384.025390625 1555.73046875 c 0
 345.640625 1502.95214844 316.8515625 1429.56542969 305.44140625 1329 c 1
 1025.02734375 1329 l 2
 1080.21875 1329 1125.02734375 1284.19140625 1125.02734375 1229 c 0
 1125.02734375 1173.80859375 1080.21875 1129 1025.02734375 1129 c 2
 305.44140625 1129 l 1
 316.8515625 1028.43457031 345.640625 955.047851562 384.025390625 902.26953125 c 0
 434.146484375 833.3515625 502.033203125 793.229492188 595.421875 773.7734375 c 0
 782.1953125 734.862304688 1067.23242188 799.40625 1355.30664062 943.443359375 c 0
 1368.73828125 950.155273438 1383.93945312 953.920898438 1399.96289062 953.920898438 c 0
 1455.16015625 953.920898438 1499.97265625 909.108398438 1499.97265625 853.911132812 c 0
 1499.97265625 840.186523438 1497.203125 827.104492188 1492.19140625 815.193359375 c 2
 892.19140625 -609.806640625 l 2
 877.04296875 -645.784179688 841.41796875 -670.956054688 799.958984375 -670.956054688 c 0
 786.2265625 -670.956054688 773.13671875 -668.181640625 761.220703125 -663.1640625 c 0
 725.2421875 -648.015625 700.0703125 -612.391601562 700.0703125 -570.931640625 c 0
 700.0703125 -557.19921875 702.845703125 -544.109375 707.86328125 -532.193359375 c 2
 1210.55859375 661.705078125 l 1
 978.228515625 574.586914062 751.900390625 536.87890625 554.6328125 577.9765625 c 0
 423.01953125 605.395507812 303.40625 673.0859375 222.279296875 784.63671875 c 0
 141.150390625 896.1875 100.02734375 1045.43554688 100.02734375 1229 c 0
 100.02734375 1412.56445312 141.150390625 1561.8125 222.279296875 1673.36328125 c 0
 303.40625 1784.9140625 423.01953125 1852.60449219 554.6328125 1880.0234375 c 0
 612.212890625 1892.01953125 672.26953125 1897.30175781 734.228515625 1896.6015625 c 0
EndSplineSet
EndChar

StartChar: uniE519
Encoding: 58649 58649 24
Width: 1600
Flags: HW
LayerCount: 2
Fore
SplineSet
865.873046875 1959.265625 m 0
 926.874023438 1959.94726562 985.611328125 1955.69335938 1041.43945312 1946.38867188 c 0
 1169.04589844 1925.12109375 1283.44140625 1876.04296875 1367.5859375 1791.8984375 c 0
 1451.73046875 1707.75390625 1500 1588.72167969 1500 1454 c 0
 1500 1369.32714844 1472.46679688 1291.33691406 1421.2578125 1236.92773438 c 0
 1370.04882812 1182.51855469 1303.09277344 1154.20019531 1234.83789062 1138.55859375 c 0
 1098.328125 1107.27539062 943.76171875 1119.8203125 793.76171875 1129.1953125 c 0
 643.76171875 1138.5703125 498.328125 1144.77539062 409.837890625 1124.49609375 c 0
 365.592773438 1114.35644531 338.798828125 1099.31542969 324.3828125 1083.99804688 c 0
 309.966796875 1068.68066406 300 1050.57714844 300 1004 c 0
 300 913.72265625 326.73046875 854.62890625 373.8359375 807.5234375 c 0
 420.94140625 760.41796875 494.046875 725.12109375 591.439453125 708.888671875 c 0
 786.225585938 676.423828125 1070.18652344 725.897460938 1355.27929688 868.443359375 c 0
 1368.71484375 875.161132812 1383.91015625 879.09765625 1399.94140625 879.09765625 c 0
 1439.1015625 879.09765625 1473.03417969 856.540039062 1489.44335938 823.720703125 c 0
 1496.16113281 810.28515625 1500.09765625 795.08984375 1500.09765625 779.05859375 c 0
 1500.09765625 739.8984375 1477.54003906 705.965820312 1444.72070312 689.556640625 c 0
 1129.81347656 532.103515625 813.774414062 469.076171875 558.560546875 511.611328125 c 0
 430.954101562 532.87890625 316.55859375 581.95703125 232.4140625 666.1015625 c 0
 148.26953125 750.24609375 100 869.278320312 100 1004 c 0
 100 1088.67285156 127.533203125 1166.66308594 178.7421875 1221.07226562 c 0
 229.951171875 1275.48144531 296.907226562 1303.79980469 365.162109375 1319.44140625 c 0
 501.671875 1350.72460938 656.23828125 1338.1796875 806.23828125 1328.8046875 c 0
 956.23828125 1319.4296875 1101.671875 1313.22460938 1190.16210938 1333.50390625 c 0
 1234.40722656 1343.64355469 1261.20117188 1358.68457031 1275.6171875 1374.00195312 c 0
 1290.03320312 1389.31933594 1300 1407.42285156 1300 1454 c 0
 1300 1544.27734375 1273.26953125 1603.37109375 1226.1640625 1650.4765625 c 0
 1179.05859375 1697.58203125 1105.953125 1732.87890625 1008.56054688 1749.11132812 c 0
 813.774414062 1781.57617188 529.813476562 1732.10253906 244.720703125 1589.55664062 c 0
 231.28515625 1582.83886719 216.08984375 1578.90234375 200.05859375 1578.90234375 c 0
 160.8984375 1578.90234375 126.965820312 1601.45996094 110.556640625 1634.27929688 c 0
 103.838867188 1647.71484375 99.90234375 1662.91015625 99.90234375 1678.94140625 c 0
 99.90234375 1718.1015625 122.459960938 1752.03417969 155.279296875 1768.44335938 c 0
 401.299804688 1891.45410156 648.013671875 1956.83105469 865.873046875 1959.265625 c 0
EndSplineSet
EndChar

StartChar: uniE51A
Encoding: 58650 58650 25
Width: 1600
Flags: HW
LayerCount: 2
Fore
SplineSet
575 1929 m 0
 659.672851562 1929 737.663085938 1901.46679688 792.072265625 1850.2578125 c 0
 846.481445312 1799.04882812 874.799804688 1732.09277344 890.44140625 1663.83789062 c 0
 921.724609375 1527.328125 909.1796875 1372.76171875 899.8046875 1222.76171875 c 0
 890.4296875 1072.76171875 884.224609375 927.328125 904.50390625 838.837890625 c 0
 914.643554688 794.592773438 929.684570312 767.798828125 945.001953125 753.3828125 c 0
 960.319335938 738.966796875 978.422851562 729 1025 729 c 0
 1115.27734375 729 1174.37109375 755.73046875 1221.4765625 802.8359375 c 0
 1268.58203125 849.94140625 1303.87890625 923.046875 1320.11132812 1020.43945312 c 0
 1352.57617188 1215.22558594 1303.10253906 1499.18652344 1160.55664062 1784.27929688 c 0
 1153.83886719 1797.71484375 1149.90234375 1812.91015625 1149.90234375 1828.94140625 c 0
 1149.90234375 1868.1015625 1172.45996094 1902.03417969 1205.27929688 1918.44335938 c 0
 1218.71484375 1925.16113281 1233.91015625 1929.09765625 1249.94140625 1929.09765625 c 0
 1289.1015625 1929.09765625 1323.03417969 1906.54003906 1339.44335938 1873.72070312 c 0
 1496.89648438 1558.81347656 1559.92382812 1242.77441406 1517.38867188 987.560546875 c 0
 1496.12109375 859.954101562 1447.04296875 745.55859375 1362.8984375 661.4140625 c 0
 1278.75390625 577.26953125 1159.72167969 529 1025 529 c 0
 940.327148438 529 862.336914062 556.533203125 807.927734375 607.7421875 c 0
 753.518554688 658.951171875 725.200195312 725.907226562 709.55859375 794.162109375 c 0
 678.275390625 930.671875 690.8203125 1085.23828125 700.1953125 1235.23828125 c 0
 709.5703125 1385.23828125 715.775390625 1530.671875 695.49609375 1619.16210938 c 0
 685.356445312 1663.40722656 670.315429688 1690.20117188 654.998046875 1704.6171875 c 0
 639.680664062 1719.03320312 621.577148438 1729 575 1729 c 0
 484.72265625 1729 425.62890625 1702.26953125 378.5234375 1655.1640625 c 0
 331.41796875 1608.05859375 296.12109375 1534.953125 279.888671875 1437.56054688 c 0
 247.423828125 1242.77441406 296.897460938 958.813476562 439.443359375 673.720703125 c 0
 446.161132812 660.28515625 450.09765625 645.08984375 450.09765625 629.05859375 c 0
 450.09765625 589.8984375 427.540039062 555.965820312 394.720703125 539.556640625 c 0
 381.28515625 532.838867188 366.08984375 528.90234375 350.05859375 528.90234375 c 0
 310.8984375 528.90234375 276.965820312 551.459960938 260.556640625 584.279296875 c 0
 103.103515625 899.186523438 40.076171875 1215.22558594 82.611328125 1470.43945312 c 0
 103.87890625 1598.04589844 152.95703125 1712.44140625 237.1015625 1796.5859375 c 0
 321.24609375 1880.73046875 440.278320312 1929 575 1929 c 0
EndSplineSet
EndChar

StartChar: uniE51B
Encoding: 58651 58651 26
Width: 1600
Flags: HW
LayerCount: 2
Fore
SplineSet
734.126953125 1959.265625 m 0
 951.986328125 1956.83105469 1198.70019531 1891.45410156 1444.72070312 1768.44335938 c 0
 1477.54003906 1752.03417969 1499.94238281 1718.0625 1499.94238281 1678.90332031 c 0
 1499.94238281 1662.87109375 1496.16113281 1647.71484375 1489.44335938 1634.27929688 c 0
 1473.03417969 1601.45996094 1439.0625 1579.05761719 1399.90332031 1579.05761719 c 0
 1383.87109375 1579.05761719 1368.71484375 1582.83886719 1355.27929688 1589.55664062 c 0
 1070.18652344 1732.10253906 786.225585938 1781.57617188 591.439453125 1749.11132812 c 0
 494.046875 1732.87890625 420.94140625 1697.58203125 373.8359375 1650.4765625 c 0
 326.73046875 1603.37109375 300 1544.27734375 300 1454 c 0
 300 1407.42285156 309.966796875 1389.31933594 324.3828125 1374.00195312 c 0
 338.798828125 1358.68457031 365.592773438 1343.64355469 409.837890625 1333.50390625 c 0
 498.328125 1313.22460938 643.76171875 1319.4296875 793.76171875 1328.8046875 c 0
 943.76171875 1338.1796875 1098.328125 1350.72460938 1234.83789062 1319.44140625 c 0
 1303.09277344 1303.79980469 1370.04882812 1275.48144531 1421.2578125 1221.07226562 c 0
 1472.46679688 1166.66308594 1500 1088.67285156 1500 1004 c 0
 1500 869.278320312 1451.73046875 750.24609375 1367.5859375 666.1015625 c 0
 1283.44140625 581.95703125 1169.04589844 532.87890625 1041.43945312 511.611328125 c 0
 786.225585938 469.076171875 470.186523438 532.103515625 155.279296875 689.556640625 c 0
 122.459960938 705.965820312 100.057617188 739.9375 100.057617188 779.096679688 c 0
 100.057617188 795.12890625 103.838867188 810.28515625 110.556640625 823.720703125 c 0
 126.965820312 856.540039062 160.9375 878.942382812 200.096679688 878.942382812 c 0
 216.12890625 878.942382812 231.28515625 875.161132812 244.720703125 868.443359375 c 0
 529.813476562 725.897460938 813.774414062 676.423828125 1008.56054688 708.888671875 c 0
 1105.953125 725.12109375 1179.05859375 760.41796875 1226.1640625 807.5234375 c 0
 1273.26953125 854.62890625 1300 913.72265625 1300 1004 c 0
 1300 1050.57714844 1290.03320312 1068.68066406 1275.6171875 1083.99804688 c 0
 1261.20117188 1099.31542969 1234.40722656 1114.35644531 1190.16210938 1124.49609375 c 0
 1101.671875 1144.77539062 956.23828125 1138.5703125 806.23828125 1129.1953125 c 0
 656.23828125 1119.8203125 501.671875 1107.27539062 365.162109375 1138.55859375 c 0
 296.907226562 1154.20019531 229.951171875 1182.51855469 178.7421875 1236.92773438 c 0
 127.533203125 1291.33691406 100 1369.32714844 100 1454 c 0
 100 1588.72167969 148.26953125 1707.75390625 232.4140625 1791.8984375 c 0
 316.55859375 1876.04296875 430.954101562 1925.12109375 558.560546875 1946.38867188 c 0
 614.388671875 1955.69335938 673.125976562 1959.94726562 734.126953125 1959.265625 c 0
EndSplineSet
EndChar

StartChar: uniE51C
Encoding: 58652 58652 27
Width: 1600
Flags: HW
LayerCount: 2
Fore
SplineSet
1025 1929 m 0
 1159.72167969 1929 1278.75390625 1880.73046875 1362.8984375 1796.5859375 c 0
 1447.04296875 1712.44140625 1496.12109375 1598.04589844 1517.38867188 1470.43945312 c 0
 1559.92382812 1215.22558594 1496.89648438 899.186523438 1339.44335938 584.279296875 c 0
 1323.03417969 551.459960938 1289.0625 529.057617188 1249.90332031 529.057617188 c 0
 1233.87109375 529.057617188 1218.71484375 532.838867188 1205.27929688 539.556640625 c 0
 1172.45996094 555.965820312 1150.05761719 589.9375 1150.05761719 629.096679688 c 0
 1150.05761719 645.12890625 1153.83886719 660.28515625 1160.55664062 673.720703125 c 0
 1303.10253906 958.813476562 1352.57617188 1242.77441406 1320.11132812 1437.56054688 c 0
 1303.87890625 1534.953125 1268.58203125 1608.05859375 1221.4765625 1655.1640625 c 0
 1174.37109375 1702.26953125 1115.27734375 1729 1025 1729 c 0
 978.422851562 1729 960.319335938 1719.03320312 945.001953125 1704.6171875 c 0
 929.684570312 1690.20117188 914.643554688 1663.40722656 904.50390625 1619.16210938 c 0
 884.224609375 1530.671875 890.4296875 1385.23828125 899.8046875 1235.23828125 c 0
 909.1796875 1085.23828125 921.724609375 930.671875 890.44140625 794.162109375 c 0
 874.799804688 725.907226562 846.481445312 658.951171875 792.072265625 607.7421875 c 0
 737.663085938 556.533203125 659.672851562 529 575 529 c 0
 440.278320312 529 321.24609375 577.26953125 237.1015625 661.4140625 c 0
 152.95703125 745.55859375 103.87890625 859.954101562 82.611328125 987.560546875 c 0
 40.076171875 1242.77441406 103.103515625 1558.81347656 260.556640625 1873.72070312 c 0
 276.965820312 1906.54003906 310.9375 1928.94238281 350.096679688 1928.94238281 c 0
 366.12890625 1928.94238281 381.28515625 1925.16113281 394.720703125 1918.44335938 c 0
 427.540039062 1902.03417969 449.942382812 1868.0625 449.942382812 1828.90332031 c 0
 449.942382812 1812.87109375 446.161132812 1797.71484375 439.443359375 1784.27929688 c 0
 296.897460938 1499.18652344 247.423828125 1215.22558594 279.888671875 1020.43945312 c 0
 296.12109375 923.046875 331.41796875 849.94140625 378.5234375 802.8359375 c 0
 425.62890625 755.73046875 484.72265625 729 575 729 c 0
 621.577148438 729 639.680664062 738.966796875 654.998046875 753.3828125 c 0
 670.315429688 767.798828125 685.356445312 794.592773438 695.49609375 838.837890625 c 0
 715.775390625 927.328125 709.5703125 1072.76171875 700.1953125 1222.76171875 c 0
 690.8203125 1372.76171875 678.275390625 1527.328125 709.55859375 1663.83789062 c 0
 725.200195312 1732.09277344 753.518554688 1799.04882812 807.927734375 1850.2578125 c 0
 862.336914062 1901.46679688 940.327148438 1929 1025 1929 c 0
EndSplineSet
EndChar

StartChar: uniE51D
Encoding: 58653 58653 28
Width: 1600
Flags: HW
LayerCount: 2
Fore
SplineSet
789.43359375 3128.4453125 m 0
 792.922851562 3128.81445312 796.442382812 3128.95019531 800.029296875 3128.95019531 c 0
 814.455078125 3128.95019531 828.171875 3125.88867188 840.564453125 3120.38085938 c 0
 875.583984375 3104.81640625 899.900390625 3069.68652344 899.900390625 3028.92089844 c 0
 899.900390625 3014.49511719 896.83984375 3000.77929688 891.33203125 2988.38671875 c 2
 394.21484375 1869.87304688 l 1
 626.64453125 1951.06054688 850.954101562 1978.12792969 1041.390625 1946.38867188 c 0
 1168.99707031 1925.12109375 1283.39257812 1876.04296875 1367.53710938 1791.8984375 c 0
 1451.68164062 1707.75390625 1499.95117188 1588.72167969 1499.95117188 1454 c 0
 1499.95117188 1369.32714844 1472.41796875 1291.33691406 1421.20898438 1236.92773438 c 0
 1370 1182.51855469 1303.04394531 1154.20019531 1234.7890625 1138.55859375 c 0
 1098.27929688 1107.27539062 943.712890625 1119.8203125 793.712890625 1129.1953125 c 0
 643.712890625 1138.5703125 498.279296875 1144.77539062 409.7890625 1124.49609375 c 0
 365.543945312 1114.35644531 338.75 1099.31542969 324.333984375 1083.99804688 c 0
 309.91796875 1068.68066406 299.951171875 1050.57714844 299.951171875 1004 c 0
 299.951171875 913.72265625 326.681640625 854.62890625 373.787109375 807.5234375 c 0
 420.892578125 760.41796875 493.998046875 725.12109375 591.390625 708.888671875 c 0
 786.176757812 676.423828125 1070.13769531 725.897460938 1355.23046875 868.443359375 c 0
 1368.66601562 875.161132812 1383.86132812 879.09765625 1399.89257812 879.09765625 c 0
 1439.05273438 879.09765625 1472.98535156 856.540039062 1489.39453125 823.720703125 c 0
 1496.11230469 810.28515625 1500.04882812 795.08984375 1500.04882812 779.05859375 c 0
 1500.04882812 739.8984375 1477.49121094 705.965820312 1444.671875 689.556640625 c 0
 1129.76464844 532.103515625 813.725585938 469.076171875 558.51171875 511.611328125 c 0
 430.905273438 532.87890625 316.509765625 581.95703125 232.365234375 666.1015625 c 0
 148.220703125 750.24609375 99.951171875 869.278320312 99.951171875 1004 c 0
 99.951171875 1088.67285156 127.484375 1166.66308594 178.693359375 1221.07226562 c 0
 229.90234375 1275.48144531 296.858398438 1303.79980469 365.11328125 1319.44140625 c 0
 501.623046875 1350.72460938 656.189453125 1338.1796875 806.189453125 1328.8046875 c 0
 956.189453125 1319.4296875 1101.62304688 1313.22460938 1190.11328125 1333.50390625 c 0
 1234.35839844 1343.64355469 1261.15234375 1358.68457031 1275.56835938 1374.00195312 c 0
 1289.984375 1389.31933594 1299.95117188 1407.42285156 1299.95117188 1454 c 0
 1299.95117188 1544.27734375 1273.22070312 1603.37109375 1226.11523438 1650.4765625 c 0
 1179.00976562 1697.58203125 1105.90429688 1732.87890625 1008.51171875 1749.11132812 c 0
 813.725585938 1781.57617188 529.764648438 1732.10253906 244.671875 1589.55664062 c 0
 231.241210938 1582.84570312 216.044921875 1579.09082031 200.021484375 1579.09082031 c 0
 144.825195312 1579.09082031 100.01171875 1623.90332031 100.01171875 1679.10058594 c 0
 100.01171875 1693.51757812 103.069335938 1707.2265625 108.5703125 1719.61328125 c 2
 708.5703125 3069.61328125 l 2
 722.764648438 3101.55175781 753.26171875 3124.61914062 789.43359375 3128.4453125 c 0
EndSplineSet
EndChar

StartChar: uniE51E
Encoding: 58654 58654 29
Width: 1600
Flags: HW
LayerCount: 2
Fore
SplineSet
810.517578125 3128.4453125 m 0
 846.689453125 3124.61914062 877.186523438 3101.55175781 891.380859375 3069.61328125 c 2
 1491.38085938 1719.61328125 l 2
 1496.88183594 1707.2265625 1499.89160156 1693.49707031 1499.89160156 1679.07910156 c 0
 1499.89160156 1623.8828125 1455.07910156 1579.06933594 1399.88183594 1579.06933594 c 0
 1383.85839844 1579.06933594 1368.70996094 1582.84570312 1355.27929688 1589.55664062 c 0
 1070.18652344 1732.10253906 786.225585938 1781.57617188 591.439453125 1749.11132812 c 0
 494.046875 1732.87890625 420.94140625 1697.58203125 373.8359375 1650.4765625 c 0
 326.73046875 1603.37109375 300 1544.27734375 300 1454 c 0
 300 1407.42285156 309.966796875 1389.31933594 324.3828125 1374.00195312 c 0
 338.798828125 1358.68457031 365.592773438 1343.64355469 409.837890625 1333.50390625 c 0
 498.328125 1313.22460938 643.76171875 1319.4296875 793.76171875 1328.8046875 c 0
 943.76171875 1338.1796875 1098.328125 1350.72460938 1234.83789062 1319.44140625 c 0
 1303.09277344 1303.79980469 1370.04882812 1275.48144531 1421.2578125 1221.07226562 c 0
 1472.46679688 1166.66308594 1500 1088.67285156 1500 1004 c 0
 1500 869.278320312 1451.73046875 750.24609375 1367.5859375 666.1015625 c 0
 1283.44140625 581.95703125 1169.04589844 532.87890625 1041.43945312 511.611328125 c 0
 786.225585938 469.076171875 470.186523438 532.103515625 155.279296875 689.556640625 c 0
 122.459960938 705.965820312 100.057617188 739.9375 100.057617188 779.096679688 c 0
 100.057617188 795.12890625 103.838867188 810.28515625 110.556640625 823.720703125 c 0
 126.965820312 856.540039062 160.9375 878.942382812 200.096679688 878.942382812 c 0
 216.12890625 878.942382812 231.28515625 875.161132812 244.720703125 868.443359375 c 0
 529.813476562 725.897460938 813.774414062 676.423828125 1008.56054688 708.888671875 c 0
 1105.953125 725.12109375 1179.05859375 760.41796875 1226.1640625 807.5234375 c 0
 1273.26953125 854.62890625 1300 913.72265625 1300 1004 c 0
 1300 1050.57714844 1290.03320312 1068.68066406 1275.6171875 1083.99804688 c 0
 1261.20117188 1099.31542969 1234.40722656 1114.35644531 1190.16210938 1124.49609375 c 0
 1101.671875 1144.77539062 956.23828125 1138.5703125 806.23828125 1129.1953125 c 0
 656.23828125 1119.8203125 501.671875 1107.27539062 365.162109375 1138.55859375 c 0
 296.907226562 1154.20019531 229.951171875 1182.51855469 178.7421875 1236.92773438 c 0
 127.533203125 1291.33691406 100 1369.32714844 100 1454 c 0
 100 1588.72167969 148.26953125 1707.75390625 232.4140625 1791.8984375 c 0
 316.55859375 1876.04296875 430.954101562 1925.12109375 558.560546875 1946.38867188 c 0
 748.997070312 1978.12792969 973.306640625 1951.06054688 1205.73632812 1869.87304688 c 1
 708.619140625 2988.38671875 l 2
 703.111328125 3000.77929688 699.920898438 3014.52441406 699.920898438 3028.95019531 c 0
 699.920898438 3069.71582031 724.3671875 3104.81640625 759.38671875 3120.38085938 c 0
 771.779296875 3125.88867188 785.47265625 3129.00390625 799.8984375 3129.00390625 c 0
 803.485351562 3129.00390625 807.028320312 3128.81445312 810.517578125 3128.4453125 c 0
EndSplineSet
EndChar

StartChar: uniE51F
Encoding: 58655 58655 30
Width: 1600
Flags: HW
LayerCount: 2
Fore
SplineSet
734.126953125 1959.265625 m 0
 951.986328125 1956.83105469 1198.70019531 1891.45410156 1444.72070312 1768.44335938 c 0
 1477.54003906 1752.03417969 1499.94238281 1718.0625 1499.94238281 1678.90332031 c 0
 1499.94238281 1662.87109375 1496.16113281 1647.71484375 1489.44335938 1634.27929688 c 0
 1473.03417969 1601.45996094 1439.0625 1579.05761719 1399.90332031 1579.05761719 c 0
 1383.87109375 1579.05761719 1368.71484375 1582.83886719 1355.27929688 1589.55664062 c 0
 1070.18652344 1732.10253906 786.225585938 1781.57617188 591.439453125 1749.11132812 c 0
 494.046875 1732.87890625 420.94140625 1697.58203125 373.8359375 1650.4765625 c 0
 326.73046875 1603.37109375 300 1544.27734375 300 1454 c 0
 300 1407.42285156 309.966796875 1389.31933594 324.3828125 1374.00195312 c 0
 338.798828125 1358.68457031 365.592773438 1343.64355469 409.837890625 1333.50390625 c 0
 498.328125 1313.22460938 643.76171875 1319.4296875 793.76171875 1328.8046875 c 0
 943.76171875 1338.1796875 1098.328125 1350.72460938 1234.83789062 1319.44140625 c 0
 1303.09277344 1303.79980469 1370.04882812 1275.48144531 1421.2578125 1221.07226562 c 0
 1472.46679688 1166.66308594 1500 1088.67285156 1500 1004 c 0
 1500 869.278320312 1451.73046875 750.24609375 1367.5859375 666.1015625 c 0
 1283.44140625 581.95703125 1169.04589844 532.87890625 1041.43945312 511.611328125 c 0
 851.002929688 479.872070312 626.693359375 506.939453125 394.263671875 588.126953125 c 1
 891.380859375 -530.38671875 l 2
 896.888671875 -542.779296875 900.079101562 -556.524414062 900.079101562 -570.950195312 c 0
 900.079101562 -611.715820312 875.6328125 -646.81640625 840.61328125 -662.380859375 c 0
 828.220703125 -667.888671875 814.475585938 -671.079101562 800.049804688 -671.079101562 c 0
 759.284179688 -671.079101562 724.18359375 -646.6328125 708.619140625 -611.61328125 c 2
 108.619140625 738.38671875 l 2
 103.118164062 750.7734375 100.108398438 764.502929688 100.108398438 778.920898438 c 0
 100.108398438 834.1171875 144.920898438 878.930664062 200.118164062 878.930664062 c 0
 216.141601562 878.930664062 231.290039062 875.154296875 244.720703125 868.443359375 c 0
 529.813476562 725.897460938 813.774414062 676.423828125 1008.56054688 708.888671875 c 0
 1105.953125 725.12109375 1179.05859375 760.41796875 1226.1640625 807.5234375 c 0
 1273.26953125 854.62890625 1300 913.72265625 1300 1004 c 0
 1300 1050.57714844 1290.03320312 1068.68066406 1275.6171875 1083.99804688 c 0
 1261.20117188 1099.31542969 1234.40722656 1114.35644531 1190.16210938 1124.49609375 c 0
 1101.671875 1144.77539062 956.23828125 1138.5703125 806.23828125 1129.1953125 c 0
 656.23828125 1119.8203125 501.671875 1107.27539062 365.162109375 1138.55859375 c 0
 296.907226562 1154.20019531 229.951171875 1182.51855469 178.7421875 1236.92773438 c 0
 127.533203125 1291.33691406 100 1369.32714844 100 1454 c 0
 100 1588.72167969 148.26953125 1707.75390625 232.4140625 1791.8984375 c 0
 316.55859375 1876.04296875 430.954101562 1925.12109375 558.560546875 1946.38867188 c 0
 614.388671875 1955.69335938 673.125976562 1959.94726562 734.126953125 1959.265625 c 0
EndSplineSet
EndChar

StartChar: uniE520
Encoding: 58656 58656 31
Width: 1600
Flags: HW
LayerCount: 2
Fore
SplineSet
865.921875 1959.265625 m 0
 926.922851562 1959.94726562 985.66015625 1955.69335938 1041.48828125 1946.38867188 c 0
 1169.09472656 1925.12109375 1283.49023438 1876.04296875 1367.63476562 1791.8984375 c 0
 1451.77929688 1707.75390625 1500.04882812 1588.72167969 1500.04882812 1454 c 0
 1500.04882812 1369.32714844 1472.515625 1291.33691406 1421.30664062 1236.92773438 c 0
 1370.09765625 1182.51855469 1303.14160156 1154.20019531 1234.88671875 1138.55859375 c 0
 1098.37695312 1107.27539062 943.810546875 1119.8203125 793.810546875 1129.1953125 c 0
 643.810546875 1138.5703125 498.376953125 1144.77539062 409.88671875 1124.49609375 c 0
 365.641601562 1114.35644531 338.84765625 1099.31542969 324.431640625 1083.99804688 c 0
 310.015625 1068.68066406 300.048828125 1050.57714844 300.048828125 1004 c 0
 300.048828125 913.72265625 326.779296875 854.62890625 373.884765625 807.5234375 c 0
 420.990234375 760.41796875 494.095703125 725.12109375 591.48828125 708.888671875 c 0
 786.274414062 676.423828125 1070.23535156 725.897460938 1355.328125 868.443359375 c 0
 1368.75878906 875.154296875 1383.95507812 878.909179688 1399.97851562 878.909179688 c 0
 1455.17480469 878.909179688 1499.98828125 834.096679688 1499.98828125 778.899414062 c 0
 1499.98828125 764.482421875 1496.93066406 750.7734375 1491.4296875 738.38671875 c 2
 891.4296875 -611.61328125 l 2
 875.865234375 -646.6328125 840.735351562 -670.94921875 799.969726562 -670.94921875 c 0
 785.543945312 -670.94921875 771.828125 -667.888671875 759.435546875 -662.380859375 c 0
 724.416015625 -646.81640625 700.099609375 -611.686523438 700.099609375 -570.920898438 c 0
 700.099609375 -556.495117188 703.16015625 -542.779296875 708.66796875 -530.38671875 c 2
 1205.78515625 588.126953125 l 1
 973.35546875 506.939453125 749.045898438 479.872070312 558.609375 511.611328125 c 0
 431.002929688 532.87890625 316.607421875 581.95703125 232.462890625 666.1015625 c 0
 148.318359375 750.24609375 100.048828125 869.278320312 100.048828125 1004 c 0
 100.048828125 1088.67285156 127.58203125 1166.66308594 178.791015625 1221.07226562 c 0
 230 1275.48144531 296.956054688 1303.79980469 365.2109375 1319.44140625 c 0
 501.720703125 1350.72460938 656.287109375 1338.1796875 806.287109375 1328.8046875 c 0
 956.287109375 1319.4296875 1101.72070312 1313.22460938 1190.2109375 1333.50390625 c 0
 1234.45605469 1343.64355469 1261.25 1358.68457031 1275.66601562 1374.00195312 c 0
 1290.08203125 1389.31933594 1300.04882812 1407.42285156 1300.04882812 1454 c 0
 1300.04882812 1544.27734375 1273.31835938 1603.37109375 1226.21289062 1650.4765625 c 0
 1179.10742188 1697.58203125 1106.00195312 1732.87890625 1008.609375 1749.11132812 c 0
 813.823242188 1781.57617188 529.862304688 1732.10253906 244.76953125 1589.55664062 c 0
 231.333984375 1582.83886719 216.138671875 1578.90234375 200.107421875 1578.90234375 c 0
 160.947265625 1578.90234375 127.014648438 1601.45996094 110.60546875 1634.27929688 c 0
 103.887695312 1647.71484375 99.951171875 1662.91015625 99.951171875 1678.94140625 c 0
 99.951171875 1718.1015625 122.508789062 1752.03417969 155.328125 1768.44335938 c 0
 401.348632812 1891.45410156 648.0625 1956.83105469 865.921875 1959.265625 c 0
EndSplineSet
EndChar

StartChar: uniE521
Encoding: 58657 58657 32
Width: 1600
Flags: HW
LayerCount: 2
Fore
SplineSet
809.676757812 3128.52929688 m 0
 818.489257812 3127.67285156 827.11328125 3125.63085938 835.108398438 3122.6328125 c 0
 873.0234375 3108.4140625 899.959960938 3071.81152344 899.959960938 3028.95605469 c 0
 899.959960938 3016.61914062 897.720703125 3004.80175781 893.627929688 2993.88671875 c 2
 443.627929688 1793.88671875 l 2
 442.40234375 1790.6171875 440.987304688 1787.37597656 439.438476562 1784.27929688 c 0
 296.892578125 1499.18652344 247.418945312 1215.22558594 279.883789062 1020.43945312 c 0
 296.116210938 923.046875 331.413085938 849.94140625 378.518554688 802.8359375 c 0
 425.624023438 755.73046875 484.717773438 729 574.995117188 729 c 0
 621.572265625 729 639.67578125 738.966796875 654.993164062 753.3828125 c 0
 670.310546875 767.798828125 685.3515625 794.592773438 695.491210938 838.837890625 c 0
 715.770507812 927.328125 709.565429688 1072.76171875 700.190429688 1222.76171875 c 0
 690.815429688 1372.76171875 678.270507812 1527.328125 709.553710938 1663.83789062 c 0
 725.1953125 1732.09277344 753.513671875 1799.04882812 807.922851562 1850.2578125 c 0
 862.33203125 1901.46679688 940.322265625 1929 1024.99511719 1929 c 0
 1159.71679688 1929 1278.74902344 1880.73046875 1362.89355469 1796.5859375 c 0
 1447.03808594 1712.44140625 1496.11621094 1598.04589844 1517.38378906 1470.43945312 c 0
 1559.91894531 1215.22558594 1496.89160156 899.186523438 1339.43847656 584.279296875 c 0
 1323.02929688 551.459960938 1289.05761719 529.057617188 1249.8984375 529.057617188 c 0
 1233.86621094 529.057617188 1218.70996094 532.838867188 1205.27441406 539.556640625 c 0
 1172.45507812 555.965820312 1150.05273438 589.9375 1150.05273438 629.096679688 c 0
 1150.05273438 645.12890625 1153.83398438 660.28515625 1160.55175781 673.720703125 c 0
 1303.09765625 958.813476562 1352.57128906 1242.77441406 1320.10644531 1437.56054688 c 0
 1303.87402344 1534.953125 1268.57714844 1608.05859375 1221.47167969 1655.1640625 c 0
 1174.36621094 1702.26953125 1115.27246094 1729 1024.99511719 1729 c 0
 978.41796875 1729 960.314453125 1719.03320312 944.997070312 1704.6171875 c 0
 929.6796875 1690.20117188 914.638671875 1663.40722656 904.499023438 1619.16210938 c 0
 884.219726562 1530.671875 890.424804688 1385.23828125 899.799804688 1235.23828125 c 0
 909.174804688 1085.23828125 921.719726562 930.671875 890.436523438 794.162109375 c 0
 874.794921875 725.907226562 846.4765625 658.951171875 792.067382812 607.7421875 c 0
 737.658203125 556.533203125 659.66796875 529 574.995117188 529 c 0
 440.2734375 529 321.241210938 577.26953125 237.096679688 661.4140625 c 0
 152.952148438 745.55859375 103.874023438 859.954101562 82.6064453125 987.560546875 c 0
 40.3193359375 1241.28222656 102.458984375 1555.12011719 257.893554688 1868.19726562 c 1
 706.362304688 3064.11328125 l 2
 720.581054688 3102.02832031 757.0390625 3129.00292969 799.893554688 3129.00292969 c 0
 803.194335938 3129.00292969 806.458007812 3128.84277344 809.676757812 3128.52929688 c 0
EndSplineSet
EndChar

StartChar: uniE522
Encoding: 58658 58658 33
Width: 1600
Flags: HW
LayerCount: 2
Fore
SplineSet
790.323242188 3128.52929688 m 0
 793.541992188 3128.84277344 796.668945312 3129.04296875 799.969726562 3129.04296875 c 0
 842.82421875 3129.04296875 879.418945312 3102.02832031 893.637695312 3064.11328125 c 2
 1342.10644531 1868.19726562 l 1
 1497.54101562 1555.12011719 1559.68066406 1241.28222656 1517.39355469 987.560546875 c 0
 1496.12597656 859.954101562 1447.04785156 745.55859375 1362.90332031 661.4140625 c 0
 1278.75878906 577.26953125 1159.7265625 529 1025.00488281 529 c 0
 940.33203125 529 862.341796875 556.533203125 807.932617188 607.7421875 c 0
 753.5234375 658.951171875 725.205078125 725.907226562 709.563476562 794.162109375 c 0
 678.280273438 930.671875 690.825195312 1085.23828125 700.200195312 1235.23828125 c 0
 709.575195312 1385.23828125 715.780273438 1530.671875 695.500976562 1619.16210938 c 0
 685.361328125 1663.40722656 670.3203125 1690.20117188 655.002929688 1704.6171875 c 0
 639.685546875 1719.03320312 621.58203125 1729 575.004882812 1729 c 0
 484.727539062 1729 425.633789062 1702.26953125 378.528320312 1655.1640625 c 0
 331.422851562 1608.05859375 296.125976562 1534.953125 279.893554688 1437.56054688 c 0
 247.428710938 1242.77441406 296.90234375 958.813476562 439.448242188 673.720703125 c 0
 446.166015625 660.28515625 450.102539062 645.08984375 450.102539062 629.05859375 c 0
 450.102539062 589.8984375 427.544921875 555.965820312 394.725585938 539.556640625 c 0
 381.290039062 532.838867188 366.094726562 528.90234375 350.063476562 528.90234375 c 0
 310.903320312 528.90234375 276.970703125 551.459960938 260.561523438 584.279296875 c 0
 103.108398438 899.186523438 40.0810546875 1215.22558594 82.6162109375 1470.43945312 c 0
 103.883789062 1598.04589844 152.961914062 1712.44140625 237.106445312 1796.5859375 c 0
 321.250976562 1880.73046875 440.283203125 1929 575.004882812 1929 c 0
 659.677734375 1929 737.66796875 1901.46679688 792.077148438 1850.2578125 c 0
 846.486328125 1799.04882812 874.8046875 1732.09277344 890.446289062 1663.83789062 c 0
 921.729492188 1527.328125 909.184570312 1372.76171875 899.809570312 1222.76171875 c 0
 890.434570312 1072.76171875 884.229492188 927.328125 904.508789062 838.837890625 c 0
 914.6484375 794.592773438 929.689453125 767.798828125 945.006835938 753.3828125 c 0
 960.32421875 738.966796875 978.427734375 729 1025.00488281 729 c 0
 1115.28222656 729 1174.37597656 755.73046875 1221.48144531 802.8359375 c 0
 1268.58691406 849.94140625 1303.88378906 923.046875 1320.11621094 1020.43945312 c 0
 1352.58105469 1215.22558594 1303.10742188 1499.18652344 1160.56152344 1784.27929688 c 0
 1159.01269531 1787.37597656 1157.59765625 1790.6171875 1156.37207031 1793.88671875 c 2
 706.372070312 2993.88671875 l 2
 702.279296875 3004.80175781 699.9609375 3016.62792969 699.9609375 3028.96484375 c 0
 699.9609375 3071.81933594 726.9765625 3108.4140625 764.891601562 3122.6328125 c 0
 772.88671875 3125.63085938 781.510742188 3127.67285156 790.323242188 3128.52929688 c 0
EndSplineSet
EndChar

StartChar: uniE523
Encoding: 58659 58659 34
Width: 1600
Flags: HW
LayerCount: 2
Fore
SplineSet
574.995117188 1929 m 0
 659.66796875 1929 737.658203125 1901.46679688 792.067382812 1850.2578125 c 0
 846.4765625 1799.04882812 874.794921875 1732.09277344 890.436523438 1663.83789062 c 0
 921.719726562 1527.328125 909.174804688 1372.76171875 899.799804688 1222.76171875 c 0
 890.424804688 1072.76171875 884.219726562 927.328125 904.499023438 838.837890625 c 0
 914.638671875 794.592773438 929.6796875 767.798828125 944.997070312 753.3828125 c 0
 960.314453125 738.966796875 978.41796875 729 1024.99511719 729 c 0
 1115.27246094 729 1174.36621094 755.73046875 1221.47167969 802.8359375 c 0
 1268.57714844 849.94140625 1303.87402344 923.046875 1320.10644531 1020.43945312 c 0
 1352.57128906 1215.22558594 1303.09765625 1499.18652344 1160.55175781 1784.27929688 c 0
 1153.83398438 1797.71484375 1149.89746094 1812.91015625 1149.89746094 1828.94140625 c 0
 1149.89746094 1868.1015625 1172.45507812 1902.03417969 1205.27441406 1918.44335938 c 0
 1218.70996094 1925.16113281 1233.90527344 1929.09765625 1249.93652344 1929.09765625 c 0
 1289.09667969 1929.09765625 1323.02929688 1906.54003906 1339.43847656 1873.72070312 c 0
 1496.89160156 1558.81347656 1559.91894531 1242.77441406 1517.38378906 987.560546875 c 0
 1496.11621094 859.954101562 1447.03808594 745.55859375 1362.89355469 661.4140625 c 0
 1278.74902344 577.26953125 1159.71679688 529 1024.99511719 529 c 0
 940.322265625 529 862.33203125 556.533203125 807.922851562 607.7421875 c 0
 753.513671875 658.951171875 725.1953125 725.907226562 709.553710938 794.162109375 c 0
 678.270507812 930.671875 690.815429688 1085.23828125 700.190429688 1235.23828125 c 0
 709.565429688 1385.23828125 715.770507812 1530.671875 695.491210938 1619.16210938 c 0
 685.3515625 1663.40722656 670.310546875 1690.20117188 654.993164062 1704.6171875 c 0
 639.67578125 1719.03320312 621.572265625 1729 574.995117188 1729 c 0
 484.717773438 1729 425.624023438 1702.26953125 378.518554688 1655.1640625 c 0
 331.413085938 1608.05859375 296.116210938 1534.953125 279.883789062 1437.56054688 c 0
 247.418945312 1242.77441406 296.892578125 958.813476562 439.438476562 673.720703125 c 0
 440.987304688 670.624023438 442.40234375 667.3828125 443.627929688 664.11328125 c 2
 893.627929688 -535.88671875 l 2
 897.720703125 -546.801757812 900.0390625 -558.627929688 900.0390625 -570.96484375 c 0
 900.0390625 -613.819335938 873.0234375 -650.4140625 835.108398438 -664.6328125 c 0
 824.193359375 -668.725585938 812.3671875 -671.043945312 800.030273438 -671.043945312 c 0
 757.17578125 -671.043945312 720.581054688 -644.028320312 706.362304688 -606.11328125 c 2
 257.893554688 589.802734375 l 1
 102.458984375 902.879882812 40.3193359375 1216.71777344 82.6064453125 1470.43945312 c 0
 103.874023438 1598.04589844 152.952148438 1712.44140625 237.096679688 1796.5859375 c 0
 321.241210938 1880.73046875 440.2734375 1929 574.995117188 1929 c 0
EndSplineSet
EndChar

StartChar: uniE524
Encoding: 58660 58660 35
Width: 1600
Flags: HW
LayerCount: 2
Fore
SplineSet
1025.00488281 1929 m 0
 1159.7265625 1929 1278.75878906 1880.73046875 1362.90332031 1796.5859375 c 0
 1447.04785156 1712.44140625 1496.12597656 1598.04589844 1517.39355469 1470.43945312 c 0
 1559.68066406 1216.71777344 1497.54101562 902.879882812 1342.10644531 589.802734375 c 1
 893.637695312 -606.11328125 l 2
 879.418945312 -644.028320312 842.81640625 -670.96484375 799.9609375 -670.96484375 c 0
 787.624023438 -670.96484375 775.806640625 -668.725585938 764.891601562 -664.6328125 c 0
 726.9765625 -650.4140625 700.040039062 -613.811523438 700.040039062 -570.956054688 c 0
 700.040039062 -558.619140625 702.279296875 -546.801757812 706.372070312 -535.88671875 c 2
 1156.37207031 664.11328125 l 2
 1157.59765625 667.3828125 1159.01269531 670.624023438 1160.56152344 673.720703125 c 0
 1303.10742188 958.813476562 1352.58105469 1242.77441406 1320.11621094 1437.56054688 c 0
 1303.88378906 1534.953125 1268.58691406 1608.05859375 1221.48144531 1655.1640625 c 0
 1174.37597656 1702.26953125 1115.28222656 1729 1025.00488281 1729 c 0
 978.427734375 1729 960.32421875 1719.03320312 945.006835938 1704.6171875 c 0
 929.689453125 1690.20117188 914.6484375 1663.40722656 904.508789062 1619.16210938 c 0
 884.229492188 1530.671875 890.434570312 1385.23828125 899.809570312 1235.23828125 c 0
 909.184570312 1085.23828125 921.729492188 930.671875 890.446289062 794.162109375 c 0
 874.8046875 725.907226562 846.486328125 658.951171875 792.077148438 607.7421875 c 0
 737.66796875 556.533203125 659.677734375 529 575.004882812 529 c 0
 440.283203125 529 321.250976562 577.26953125 237.106445312 661.4140625 c 0
 152.961914062 745.55859375 103.883789062 859.954101562 82.6162109375 987.560546875 c 0
 40.0810546875 1242.77441406 103.108398438 1558.81347656 260.561523438 1873.72070312 c 0
 276.970703125 1906.54003906 310.942382812 1928.94238281 350.1015625 1928.94238281 c 0
 366.133789062 1928.94238281 381.290039062 1925.16113281 394.725585938 1918.44335938 c 0
 427.544921875 1902.03417969 449.947265625 1868.0625 449.947265625 1828.90332031 c 0
 449.947265625 1812.87109375 446.166015625 1797.71484375 439.448242188 1784.27929688 c 0
 296.90234375 1499.18652344 247.428710938 1215.22558594 279.893554688 1020.43945312 c 0
 296.125976562 923.046875 331.422851562 849.94140625 378.528320312 802.8359375 c 0
 425.633789062 755.73046875 484.727539062 729 575.004882812 729 c 0
 621.58203125 729 639.685546875 738.966796875 655.002929688 753.3828125 c 0
 670.3203125 767.798828125 685.361328125 794.592773438 695.500976562 838.837890625 c 0
 715.780273438 927.328125 709.575195312 1072.76171875 700.200195312 1222.76171875 c 0
 690.825195312 1372.76171875 678.280273438 1527.328125 709.563476562 1663.83789062 c 0
 725.205078125 1732.09277344 753.5234375 1799.04882812 807.932617188 1850.2578125 c 0
 862.341796875 1901.46679688 940.33203125 1929 1025.00488281 1929 c 0
EndSplineSet
EndChar
